<svg xmlns="http://www.w3.org/2000/svg" viewBox="0 0 275.29 117.27"><defs><style>.cls-2{fill:#555}</style></defs><path fill="#fff" d="M36 27.27h228v83H36z"/><path class="cls-2" d="M81 53.07a1.66 1.66 0 00-1.28-.55h-20.7v15h18.49a1.83 1.83 0 001.29-.55l4.23-4.23a1.66 1.66 0 00.55-1.29v-5.06a1.67 1.67 0 00-.55-1.29zm61.23 13.06a1.67 1.67 0 00.55-1.29v-8.47a1.68 1.68 0 00-.55-1.29l-2-2a1.68 1.68 0 00-1.29-.55h-20.7v16.2h20.7a1.66 1.66 0 001.29-.56zM78.65 78.37a1.67 1.67 0 00-1.29-.55h-18.3v15.09h20.7a1.82 1.82 0 001.28-.55l2-2a1.65 1.65 0 00.55-1.29v-5a1.65 1.65 0 00-.55-1.29z"/><path class="cls-2" d="M247.14 0H0v89.12l28.15 28.15h247.14V28.15zM94.66 62.82a6.33 6.33 0 01-1.93 4.6l-5.24 5.25 5.24 5.24a6.18 6.18 0 011.93 4.6v8.46a6.33 6.33 0 01-1.93 4.6l-6 6a6 6 0 01-4.51 1.84H48V42.02h34.23a6.05 6.05 0 014.42 1.84l6.07 6.07a6.18 6.18 0 011.93 4.6v8.28zm50 40.57l-18.12-23.37a1.81 1.81 0 00-1.56-.83h-6.72v24.2h-11V42.03h34.14a6 6 0 014.42 1.84l6.07 6.07a6.17 6.17 0 011.93 4.6v12.15a6.17 6.17 0 01-1.93 4.6l-6.07 6.08a6 6 0 01-4.42 1.84h-2.21l19 24.2h-13.57zm55.66-51.61h-11v41.86h11v9.75h-33.17v-9.75h11V51.78h-11v-9.75h33.12v9.75zm23.18 37l3.59 3.59a1.68 1.68 0 001.29.55h15.18a1.67 1.67 0 001.29-.55l6.26-6.25 7.45 7.36-8 8a6.3 6.3 0 01-4.6 1.93h-20a6.3 6.3 0 01-4.6-1.93l-7.55-7.54a6.32 6.32 0 01-1.93-4.6V56.1a6.32 6.32 0 011.93-4.6l7.55-7.54a6.31 6.31 0 014.6-1.94h20a6.32 6.32 0 014.6 1.94l8 8-7.45 7.36-6.26-6.26a1.66 1.66 0 00-1.29-.55h-15.23a1.68 1.68 0 00-1.29.55l-3.59 3.59a1.82 1.82 0 00-.55 1.29v29.53a1.81 1.81 0 00.56 1.29z"/></svg>