<svg xmlns="http://www.w3.org/2000/svg" viewBox="0 0 512 123" fill="#555"><path d="M133.629 122.344c-10.296-1.596-16.985-7.559-19.547-17.428-1.228-4.723-.837-13.805.771-18.016 2.273-5.947 5.899-9.988 11.417-12.727 6.943-3.443 15.968-3.428 23.303.042 3.017 1.427 7.382 5.375 8.646 7.82l.741 1.434-5.523 2.869c-5.076 2.637-5.548 2.79-5.834 1.889-.54-1.7-4.615-5.045-6.602-5.418-5.074-.951-9.119 1.041-11.413 5.625-.98 1.959-1.294 3.498-1.453 7.134-.451 10.316 3.425 15.918 11.032 15.938 4 .01 6.793-1.438 8.672-4.496.698-1.137 1.444-2.071 1.659-2.08.584-.02 9.505 4.521 9.505 4.838 0 1.925-6.16 8.099-10.042 10.064-4.741 2.402-10.231 3.302-15.332 2.512z"/><path d="M192.495 72.399c-3.537-.846-11.084-.837-14.717.016-6.612 1.553-12.669 6.15-15.525 11.79-3.784 7.467-3.619 18.862.381 26.368 2.862 5.368 8.899 9.763 15.145 11.023 1.535.311 3.248.669 3.807.799 1.722.396 9.504-.185 12.179-.908 9.414-2.545 15.563-9.741 17.004-19.896 2.074-14.619-5.076-26.04-18.274-29.192zm-2.647 38.327c-2.729 1.14-7.295 1.015-9.892-.271-4.291-2.125-6.602-7.875-6.102-15.189.307-4.48 1.328-7.215 3.57-9.546 2.147-2.232 4.428-3.135 7.902-3.121 5.021.021 8.167 2.116 10.279 6.848.918 2.056 1.126 3.436 1.111 7.352-.028 7.609-2.177 11.967-6.868 13.927zm201.325-38.992c-7.696 0-13.799 2.171-18.521 6.587-7.301 6.829-9.366 20.817-4.585 31.039 2.917 6.231 8.846 10.833 15.772 12.239 1.52.31 3.221.665 3.779.793 1.71.391 9.488-.203 12.258-.935 10.917-2.888 17.174-11.932 17.064-24.661-.135-15.717-9.744-25.062-25.767-25.062zm11.446 28.108c-.754 5.736-2.723 9.07-6.313 10.701-4.799 2.179-11.304.715-13.838-3.112-4.975-7.518-2.999-20.619 3.592-23.809 3.931-1.903 9.901-1.137 12.894 1.654 2.911 2.716 4.431 8.752 3.665 14.566zm81.928 22.482c-5.231-.693-10.174-2.908-14.853-6.652l-3.18-2.545 4.378-3.839 4.379-3.839 2.101 1.668c4.484 3.562 8.215 4.967 13.178 4.967 5.44 0 8.559-2.146 7.756-5.344-.465-1.852-2.391-2.662-10.961-4.613-4.151-.945-8.7-2.215-10.109-2.82-6.775-2.916-9.295-10.112-6.125-17.508 2.74-6.392 9.702-10.069 19.02-10.05 6.671.015 13.473 1.925 19.116 5.37l2.369 1.445-4.399 4.262-4.399 4.261-1.269-1.151c-3.485-3.165-12.626-4.938-16.025-3.106-3 1.615-2.691 4.781.6 6.156.959.4 4.31 1.287 7.443 1.969 11.163 2.429 14.784 4.203 17.104 8.381 1.704 3.071 1.786 9.199.171 12.763-1.286 2.839-4.422 6.089-7.281 7.547-4.765 2.426-12.591 3.53-19.014 2.678zM97.855 38.69c-8.923-13.42-23.369-22.039-39.49-23.564-16.542-1.565-32.093 4.106-43.234 15.768-6.793 7.111-11.229 15.041-13.83 24.729C.15 59.904-.011 61.492 0 68.379c.01 6.871.182 8.506 1.356 12.939 5.126 19.334 20.212 34.174 39.659 39.014 1.674.417 3.73.853 4.567.969 3.705.513 12.668.298 16.66-.4 16.435-2.865 31.037-13.469 38.531-27.98 8.746-16.93 7.588-38.432-2.918-54.231zm-2.183 40.915c-4.294 15.913-17.359 28.056-33.849 31.459-25.709 5.307-50.76-14.145-52.357-40.656C8.433 53.285 18.8 36.105 34.717 28.563c6.027-2.856 10.88-3.901 18.224-3.926 7.064-.022 10.984.701 17.147 3.168C82.46 32.76 92.157 43.978 95.724 57.462c1.492 5.641 1.466 16.516-.052 22.143z"/><path d="M32.331 83.797c-4.864-1.725-8.595-6.787-9.251-12.557-.976-8.552 2.242-15.192 8.802-18.172 3.555-1.613 10.012-1.576 13.848.082 2.329 1.007 6.705 4.959 6.705 6.057 0 .18-1.512 1.072-3.357 1.982l-3.358 1.655-1.792-1.792c-1-1-2.529-1.931-3.459-2.104-2.306-.435-5.067.593-6.316 2.347-2.065 2.902-2.208 10.489-.252 13.475 1.015 1.549 2.72 2.635 4.328 2.758 3.381.26 4.234-.032 6.234-2.136l2.018-2.12 2.599 1.43c1.429.787 2.805 1.617 3.058 1.846.877.79-3.144 4.894-6.379 6.51-2.749 1.374-3.615 1.558-7.229 1.521-2.264-.024-5.051-.375-6.199-.782zm30.955 0c-4.796-1.701-8.464-6.604-9.252-12.369-1.143-8.352 2.224-15.371 8.803-18.358 3.817-1.733 10.29-1.601 14.159.293 2.395 1.171 6.394 4.847 6.394 5.876 0 .175-1.567 1.077-3.485 2.004l-3.484 1.687-1.804-1.969c-1.622-1.771-2.054-1.969-4.276-1.969-3.059 0-5.027 1.202-6.089 3.719-.95 2.252-1.07 7.773-.224 10.289 1.723 5.114 8.009 6.326 11.577 2.232l1.604-1.84 3.091 1.562c1.7.857 3.091 1.705 3.091 1.882 0 1.16-3.994 4.881-6.681 6.223-2.75 1.374-3.615 1.558-7.229 1.521-2.259-.025-5.046-.376-6.195-.783zm151.03 13.254V72.946h14.209v3.477l2.908-1.751c3.858-2.322 6.179-2.934 11.048-2.904 4.852.027 7.699 1.108 10.872 4.127l2.139 2.033 1.683-1.478c3.768-3.31 10.687-5.344 16.01-4.711 5.684.676 9.327 2.753 11.296 6.437 1.116 2.087 1.141 2.51 1.286 22.554l.148 20.426h-14.203l-.152-16.62c-.137-14.749-.254-16.804-1.05-18.26-2.448-4.48-9.854-4.195-12.396.477-.812 1.488-.931 3.461-1.082 18.037l-.173 16.366h-14.125v-16.771c0-18.413-.086-18.997-3.027-20.519-2.108-1.09-6.009-.98-7.985.225-3.137 1.912-3.196 2.297-3.196 20.548v16.519h-14.209V97.051zm76.122 0V72.946h14.208v4.149l1.646-1.385c3.639-3.061 10.365-4.746 15.305-3.832 3.852.711 6.063 1.822 8.274 4.156l1.837 1.938 1.839-1.455c4.926-3.901 11.062-5.601 16.88-4.673 4.137.66 6.497 1.691 8.537 3.731 3.28 3.281 3.266 3.17 3.435 25.405l.153 20.172h-14.187l-.171-16.366c-.188-18.248-.37-19.337-3.5-20.955-2.515-1.301-6.659-.807-8.567 1.021-2.244 2.149-2.554 4.733-2.554 21.354v14.945h-14.159l-.151-17.127c-.138-15.5-.239-17.255-1.063-18.473-1.28-1.885-3.41-2.629-6.737-2.353-3.543.294-5.689 2.17-6.341 5.54-.235 1.219-.438 9.011-.45 17.313l-.022 15.098h-14.208V97.051h-.004zm130.42 0V72.946h14.208v4.149l1.545-1.301c6.726-5.658 20.117-5.459 24.561.365 2.666 3.494 2.821 4.918 2.821 25.792v19.203h-14.208v-16.509c0-18.195-.158-19.298-2.979-20.757-2.319-1.198-6.166-1.028-8.237.365-3.177 2.139-3.229 2.457-3.41 20.533l-.164 16.366h-14.133V97.051h-.004zM134.897 66.525c-8.16-.755-15.515-5.398-18.764-11.85-2.687-5.335-3.654-15.282-2.066-21.247 2.15-8.08 7.884-14.289 15.291-16.563 8.332-2.558 18.323-.875 24.405 4.107 1.98 1.622 5.594 6.176 5.162 6.501-.708.535-10.187 5.38-10.524 5.38-.234 0-1.028-.909-1.764-2.021-3.668-5.543-12.555-5.519-16.163.045-1.863 2.873-2.604 6.603-2.335 11.736.424 8.081 3.869 12.528 10.05 12.976 1.62.117 3.753-.054 4.742-.38 1.668-.551 4.395-3.115 5.735-5.396.546-.931.799-.863 5.455 1.433 2.686 1.324 4.882 2.603 4.882 2.842 0 .771-2.82 4.34-4.928 6.237-5.039 4.536-12.188 6.847-19.178 6.2zm103.78-22.505v-2.237c0-3.109-1.222-9.16-2.507-12.409-3.275-8.283-9.864-12.989-19.039-13.601-4.673-.312-10.202.664-13.916 2.454-5.064 2.442-9.501 8.551-10.992 15.136-3.963 17.499 3.695 30.939 18.791 32.979 9.984 1.348 19.813-2.311 24.949-9.288 1.23-1.672 2.168-3.248 2.083-3.504s-2.372-1.647-5.081-3.094l-4.926-2.629-3.157 3.494c-3.518 3.892-5.33 4.884-8.899 4.867-5.837-.027-9.39-3.493-10.526-10.266l-.319-1.903h33.539zm-33.621-8.627l.328-1.641c1.301-6.5 9.278-9.771 14.916-6.115 2.154 1.396 3.414 3.355 3.981 6.193l.313 1.563h-19.538zm81.023 29.052c-.226-.488-.543-9.338-.707-19.664-.293-18.345-.327-18.832-1.486-21.202-2.442-4.996-7.472-7.307-17.014-7.819-9.037-.483-14.89.953-18.999 4.666-2.172 1.962-4.122 6.169-4.122 8.896v1.503h13.588l.327-1.745c.666-3.548 5.231-5.59 9.703-4.338 3.232.904 4.03 2.033 4.034 5.699l.004 3.066-6.899 1.163c-13.248 2.236-18.914 5.164-21.787 11.262-1.514 3.214-1.577 9.072-.134 12.324 1.801 4.06 6.205 7.211 11.313 8.103 5.193.903 12.663-.873 16.123-3.835 2.42-2.071 2.652-2.124 2.661-.616.003.628.146 1.655.313 2.283.296 1.11.489 1.143 6.897 1.143 6.096 0 6.562-.068 6.185-.889zm-14.975-15.843c-.643 2.99-2.882 5.867-5.381 6.912-.903.377-2.756.686-4.119.687-6.295 0-8.896-6.217-4.09-9.773 1.201-.889 11.97-4.42 13.514-4.432.8-.007.834 3.071.076 6.606zm35.168 17.715c-4.563-.807-7.3-2.859-9.083-6.819-.805-1.785-.935-3.91-1.075-17.635l-.16-15.605h-7.079l.146-4.187.147-4.188 3.425-.149 3.426-.149V3.93h14.208v13.703h8.626v8.586l-4.187.147-4.188.146-.146 11.672c-.082 6.421-.013 12.428.154 13.351.496 2.748 1.813 3.649 5.321 3.649h3.044v11.165l-2.41.006a71.836 71.836 0 00-4.946.221c-1.392.118-3.743.002-5.223-.259zm117.839-18.228c-.304-.005-1.591 1.328-2.86 2.962-2.76 3.556-5.657 5.154-9.308 5.138-5.05-.022-9.382-3.559-10.11-8.255-.184-1.175-.445-2.536-.583-3.024-.235-.834.794-.889 16.603-.889h16.854l-.295-3.934C433.131 22.99 422.619 13.732 407.06 16c-10.157 1.481-16.605 7.502-18.974 17.715-.984 4.238-1.091 11.703-.225 15.382 2.256 9.558 9.203 15.85 19.041 17.243 6.067.86 12.31-.16 17.55-2.87 3.558-1.838 6.015-4.087 8.493-7.776l1.532-2.281-4.907-2.656c-2.697-1.463-5.154-2.663-5.459-2.668zm-22.814-14.092c1.559-6.426 8.349-9.736 14.241-6.94 2.184 1.037 4.224 3.885 4.646 6.488l.301 1.848h-19.528l.34-1.396zm-238.62 7.105l.132-24.23 6.951-.142 6.951-.142.154 2.532.153 2.532 2.197-1.479c2.062-1.388 5.353-2.561 9.048-3.226 2.085-.375 2.203-.017 2.203 6.745v5.471l-3.933.615c-2.164.339-4.883 1.064-6.042 1.614-3.618 1.714-3.728 2.271-3.728 19.173v14.768h-14.218l.132-24.231zm161.761-.141V16.588l6.979.141 6.978.141.13 24.232.133 24.232h-14.22zm25.267.902c-4.375-12.909-8.024-23.813-8.11-24.232-.131-.645.987-.783 7.271-.899 5.664-.107 7.479.013 7.656.507.127.355 2.025 8.013 4.219 17.014 2.192 9.001 4.112 16.363 4.269 16.36.155-.004 2.126-7.598 4.379-16.874l4.098-16.867 7.447-.141c4.46-.085 7.448.053 7.448.341 0 .266-2.995 9.233-6.655 19.932s-7.334 21.449-8.164 23.891l-1.511 4.441h-14.389l-7.958-23.473zM324.438 5.974V.377h14.245l-.144 5.455-.144 5.455-6.978.142-6.979.141z"/></svg>