<svg xmlns="http://www.w3.org/2000/svg" viewBox="0 0 585 88"><defs><linearGradient id="a" x1="92.04" y1="77.13" x2="145.2" y2="23.97" gradientUnits="userSpaceOnUse"><stop offset="0" stop-color="#d81e75"/><stop offset="1" stop-color="#ff5fa8"/></linearGradient></defs><path d="M91 3.35v71.52A3.28 3.28 0 0094.41 78h71.52a3.26 3.26 0 003.25-3.36C169.2 39 130.22.13 94.5.07A3.41 3.41 0 0091 3.35z" fill="url(#a)"/><path d="M0 55.34v19.53A3.15 3.15 0 003.26 78h71.61A3 3 0 0078 74.87V3.26A3.15 3.15 0 0074.87 0H55.34A3.33 3.33 0 0052 3.26v19.53A3.15 3.15 0 0148.83 26H29.3a3.33 3.33 0 00-3.3 3.3v19.53A3.15 3.15 0 0122.79 52H3.26A3.33 3.33 0 000 55.34z" fill="#d81e75"/><path d="M74.87 0H55.34A3.33 3.33 0 0052 3.26v19.53A3.15 3.15 0 0148.83 26H29.3a3.33 3.33 0 00-3.3 3.3V78h48.87A3 3 0 0078 74.87V3.26A3.15 3.15 0 0074.87 0z" fill="#f38" opacity=".8"/><path d="M74.87 0H55.34A3.33 3.33 0 0052 3.26V78h22.87A3 3 0 0078 74.87V3.26A3.15 3.15 0 0074.87 0z" fill="#ff5fa8" opacity=".8"/><path d="M263.19 78.13V31.66L244 78.13h-2.9L222 31.66v46.47h-7V21.67h10l17.52 42.49 17.6-42.49h10.07v56.46zm17.61-20.48c0-11.85 7.79-21.41 20.23-21.41s20.23 9.56 20.23 21.41-7.79 21.5-20.23 21.5-20.23-9.66-20.23-21.5zm33.77 0c0-8.29-4.82-15.74-13.54-15.74s-13.63 7.44-13.63 15.74 4.91 15.82 13.6 15.82 13.57-7.47 13.57-15.82zm46.63 20.48V72a17.21 17.21 0 01-13.8 7.11c-10.66 0-18.2-8.13-18.2-21.41 0-13 7.45-21.5 18.2-21.5a17.09 17.09 0 0113.8 7.19V21.67h6.35v56.46zm0-11.09V48.5a15.35 15.35 0 00-12.27-6.6c-8.21 0-13.12 6.77-13.12 15.83s4.91 15.74 13.12 15.74A15.21 15.21 0 00361.2 67zm16.68-9.39c0-11.85 8.46-21.41 20.14-21.41 12.36 0 19.64 9.65 19.64 21.92v1.61h-33.1c.51 7.7 5.92 14.14 14.73 14.14a17.87 17.87 0 0012.61-5.16l3 4.15c-4.06 4.06-9.56 6.26-16.25 6.26-12.05-.02-20.77-8.73-20.77-21.51zm20.06-16.17c-8.72 0-13 7.36-13.37 13.63h26.83c-.09-6.11-4.15-13.63-13.46-13.63zm29.96 36.65V37.25h6.35v6.6c3.3-4.32 8-7.45 13.63-7.45v6.52a11.18 11.18 0 00-2.54-.25c-3.89 0-9.23 3.22-11.09 6.52v28.94zm55.52 0V51.38c0-7.19-3.64-9.48-9.14-9.48a15.78 15.78 0 00-12.1 6.35v29.88h-6.35V37.25h6.35v5.92c2.88-3.39 8.46-6.94 14.56-6.94 8.55 0 13 4.32 13 13.2v28.7zm17.95-50.96a4.27 4.27 0 118.55 0 4.27 4.27 0 01-8.55 0zm1.1 51V37.25h6.35v40.88zm17.09-.04v-4.91l22.51-30.39h-22.51v-5.58h30.81v4.82l-22.68 30.56h23v5.5zm41.9 0V37.25h6.35v6.6c3.3-4.32 8-7.45 13.63-7.45v6.52a11.18 11.18 0 00-2.54-.25c-3.89 0-9.23 3.22-11.09 6.52v28.94z" fill="#d81e75"/></svg>