<?xml version="1.0" standalone="no"?>
<!DOCTYPE svg PUBLIC "-//W3C//DTD SVG 1.1//EN" "http://www.w3.org/Graphics/SVG/1.1/DTD/svg11.dtd" >
<svg xmlns="http://www.w3.org/2000/svg">
<metadata>
This is a custom SVG webfont generated by Font Squirrel.
Copyright   : Copyright 51 20022004 by Maxim Iorsh iorshmathtechnionacil Distributed under the terms of GNU General Public License version 2httpwwwgnuorglicensesgplhtml Latin glyphs and part of punctuation Copyright URWCopyright 1999 by URW Design  DevelopmentAll rights reserved
</metadata>
<defs>
<font id="webfont2BBJ9RJ7" horiz-adv-x="0" >
<font-face units-per-em="2048" ascent="1638" descent="-410" />
<missing-glyph horiz-adv-x="845" />
<glyph unicode=" "  horiz-adv-x="845" />
<glyph unicode="&#x09;" horiz-adv-x="845" />
<glyph unicode="&#xa0;" horiz-adv-x="845" />
<glyph unicode="!" horiz-adv-x="440" d="M76 147q0 59 43 103q41 41 102.5 41t102.5 -41q43 -43 43 -103q0 -61 -43 -104t-102.5 -43t-102.5 43t-43 104zM76 451v675h291v-675h-291z" />
<glyph unicode="&#x22;" horiz-adv-x="743" d="M66 694v432h274l-156 -432h-118zM444 694v432h273l-154 -432h-119z" />
<glyph unicode="#" horiz-adv-x="1050" d="M63 438v189h207l23 166h-180v186h206l56 410h168l-54 -410h162l56 410h170l-56 -410h168v-186h-194l-23 -166h168v-189h-192l-60 -438h-170l62 438h-164l-60 -438h-170l60 438h-183zM440 627h162l25 166h-162z" />
<glyph unicode="$" horiz-adv-x="1050" d="M111 444v23h251q2 -72 48 -117q43 -43 110.5 -43t112.5 45t45 111q0 86 -74 131q-37 25 -196 84q-242 88 -242 338q0 166 104 270q49 49 144 72v250h237v-250q96 -18 164 -111q66 -90 70 -211h-236q-20 115 -123 115q-49 0 -80 -33q-31 -34 -30 -86q0 -74 53 -112 q43 -31 160 -76q138 -46 196 -99q102 -90 103 -274q0 -147 -72 -246q-76 -102 -205 -139v-248h-237v248q-96 27 -162 80q-70 55 -105 127q-36 73 -36 151z" />
<glyph unicode="%" horiz-adv-x="1613" d="M39 1073q0 141 100 242q98 98 242 98q133 0 237 -100q100 -98 101 -238q0 -143 -98.5 -241.5t-241.5 -98.5q-141 0 -240 99q-100 100 -100 239zM242 1075.5q0 -57.5 41 -98.5t96 -41q57 0 98 41t41 98q0 55 -41 96q-43 43 -98 43t-96 -40.5t-41 -98zM420 0l571 1389h195 l-576 -1389h-190zM889 313q0 141 100 242q98 98 242 98q137 0 237.5 -98t100.5 -240q0 -139 -100.5 -239.5t-239.5 -100.5t-239.5 100.5t-100.5 237.5zM1092 315.5q0 -57.5 41 -98.5t96 -41q57 0 98 41t41 98.5t-41 98.5t-98 41q-55 0 -96 -41t-41 -98.5z" />
<glyph unicode="&#x26;" horiz-adv-x="1275" d="M66 420q0 125 61 219q59 92 199 174q-66 74 -93 131q-25 51 -24 125q0 145 100 244q104 100 250 100q154 0 256.5 -98t102.5 -244q0 -141 -87 -237q-37 -41 -133 -103l127 -141l136 223h280l-242 -412l248 -264l-178 -162l-197 209q-86 -117 -165 -164q-76 -45 -189 -45 q-190 0 -321 129.5t-131 315.5zM315 403q0 -76 54 -129q51 -51 135 -51q59 0 104 33t90 117l-215 231q-168 -74 -168 -201zM446 1065q0 -39 21 -74q20 -37 76 -88q74 41 106 76q29 33 29 84q0 53 -31 84t-84 31q-49 0 -82 -33q-35 -35 -35 -80z" />
<glyph unicode="'" horiz-adv-x="364" d="M66 694v432h274l-156 -432h-118z" />
<glyph unicode="(" horiz-adv-x="641" d="M49 563q0 281 203 563h297l-105 -155q-43 -70 -82 -183q-41 -119 -40 -225q0 -305 227 -563h-297q-96 113 -148 250q-55 147 -55 313z" />
<glyph unicode=")" horiz-adv-x="587" d="M45 0q227 258 227 563q0 106 -41 225q-39 113 -81 183q-49 78 -105 155h297q203 -283 203 -563q0 -166 -56 -313q-51 -137 -147 -250h-297z" />
<glyph unicode="*" horiz-adv-x="825" d="M131 1040v134l186 -9l-100 162l119 59l84 -161l86 164l110 -68l-102 -156l182 11v-136l-182 11l100 -152l-106 -70l-88 164l-82 -164l-121 58l98 168z" />
<glyph unicode="+" horiz-adv-x="1126" d="M96 586v221h361v367h225v-367h360v-221h-360v-367h-225v367h-361z" />
<glyph unicode="," horiz-adv-x="342" d="M35 -80v342h272l-121 -342h-151z" />
<glyph unicode="-" horiz-adv-x="731" d="M47 432v262h658v-262h-658z" />
<glyph unicode="." horiz-adv-x="391" d="M27 147q0 59 43 103q41 41 102 41t102 -41q43 -43 43 -103q0 -61 -43 -104t-102 -43t-102 43t-43 104z" />
<glyph unicode="/" horiz-adv-x="782" d="M-43 0l510 1126h291l-510 -1126h-291z" />
<glyph unicode="0" horiz-adv-x="966" d="M80 565q0 139 18 226q18 84 72 172q109 184 315 184t314 -184q51 -84 69 -172q20 -96 21 -226q0 -131 -21 -227q-18 -86 -69 -170q-55 -90 -121 -139q-70 -51 -186 -52q-209 0 -322 191q-55 90 -72 170q-18 86 -18 227zM336 565q0 -138 37 -233q37 -94 112 -94 q74 0 111 94q35 90 35 233q0 141 -35 232q-37 96 -111 96q-76 0 -112.5 -96.5t-36.5 -231.5z" />
<glyph unicode="1" horiz-adv-x="966" d="M252 565v285q88 49 137 108q49 57 96 168h232v-1126h-293v657q-94 -61 -172 -92z" />
<glyph unicode="2" horiz-adv-x="966" d="M37 0q358 401 452 567q45 82 37 164q-10 84 -69 123q-43 29 -101 39q-52 9 -98 0q-61 -12 -108 -29v252q152 33 249 33q174 0 297 -102q127 -104 127 -263q0 -117 -55 -237q-57 -125 -102 -178q-57 -68 -99 -107h365l-135 -262h-760z" />
<glyph unicode="3" horiz-adv-x="966" d="M100 37l70 248q76 -47 207 -47q89 0 147.5 30.5t55.5 91.5q-4 78 -80 105q-82 29 -168 16v185q61 -12 117 6q104 37 98 121q-6 96 -170 96q-92 0 -176 -35v250q82 45 207 45q86 0 178 -28.5t166 -102.5q76 -76 77 -178q2 -111 -120 -226q86 -33 135 -135t10 -217 q-43 -127 -152 -205q-104 -74 -272 -77q-201 -4 -330 57z" />
<glyph unicode="4" horiz-adv-x="966" d="M80 176v178l481 772h219v-743h109l-113 -207v-176h-237v176h-459zM322 383h217v352z" />
<glyph unicode="5" horiz-adv-x="966" d="M119 10v246q104 -43 231 -31q197 20 197 174q0 78 -68 121q-66 43 -151 45q-72 2 -172 -8l151 569h543l-53 -225h-305l-39 -139q184 -27 272 -109q86 -80 92 -250q6 -180 -123 -297q-133 -121 -321 -129q-84 -6 -254 33z" />
<glyph unicode="6" horiz-adv-x="966" d="M43 385q0 207 125 363l313 378h375l-139 -147l-146 -152q-16 -16 -27.5 -29.5l-16.5 -19.5t-3 -6q172 0 285 -112.5t113 -274.5q0 -166 -127 -284.5t-311.5 -118.5t-311.5 118q-129 121 -129 285zM315 393q0 -65 50 -110q47 -45 114.5 -45t114.5 45q49 46 49 110 q0 61 -49 109q-51 47 -114.5 47t-114.5 -47q-50 -48 -50 -109z" />
<glyph unicode="7" horiz-adv-x="966" d="M84 0l424 901h-385l110 225h652l-512 -1126h-289z" />
<glyph unicode="8" horiz-adv-x="966" d="M76 346q0 164 139 268q-98 92 -98 215q0 131 106 224q111 94 260 94q147 0 258 -94q109 -92 109 -224q0 -123 -98 -215q139 -104 139 -268q0 -150 -119 -254q-120 -104 -289 -104t-288 104t-119 254zM326 364.5q0 -65.5 45 -110.5q47 -47 112 -47q63 0 110.5 47 t47.5 110.5t-47 110.5t-111 47q-66 0 -112 -47q-45 -45 -45 -110.5zM348 819q0 -53 39 -92t96.5 -39t96 39t38.5 92t-38.5 92t-96 39t-96.5 -39t-39 -92z" />
<glyph unicode="9" horiz-adv-x="966" d="M43 741q0 168 129 287q127 119 311.5 119t311.5 -119t127 -287q0 -209 -123 -362l-314 -379h-376l141 147l143 152q52 55 49 55q-172 0 -286 115q-113 112 -113 272zM324 735q0 -66 47 -110.5t116 -44.5q68 0 115 45t47 110q0 63 -47 109q-51 47 -115 47q-66 0 -116 -47 q-47 -46 -47 -109z" />
<glyph unicode=":" horiz-adv-x="421" d="M57 147q0 59 43 103q41 41 102.5 41t102.5 -41q43 -43 43 -103q0 -61 -43 -104t-102.5 -43t-102.5 43t-43 104zM57 717q0 61 43 104t102.5 43t102.5 -43t43 -104q0 -59 -43 -103q-41 -41 -102.5 -41t-102.5 41q-43 44 -43 103z" />
<glyph unicode=";" horiz-adv-x="407" d="M59 -80v342h275l-121 -342h-154zM59 717q0 61 43 104t105 43q59 0 102 -43t43 -104q0 -59 -43 -103q-41 -41 -102 -41q-63 0 -105 41q-43 44 -43 103z" />
<glyph unicode="&#x3c;" horiz-adv-x="1126" d="M92 485v185l957 424v-220l-641 -294l641 -299v-220z" />
<glyph unicode="=" horiz-adv-x="1126" d="M96 395v221h946v-221h-946zM96 762v221h946v-221h-946z" />
<glyph unicode="&#x3e;" horiz-adv-x="1126" d="M90 61v220l643 294l-643 299v220l957 -424v-185z" />
<glyph unicode="?" horiz-adv-x="905" d="M35 838q18 152 141 260q125 109 287 108q170 0 286.5 -116.5t116.5 -282.5q0 -125 -75 -232q-78 -111 -189 -145v-96h-293v319q61 -27 119 -26q70 0 121 45q53 47 53 106q0 68 -43 117q-41 47 -115 47q-68 0 -118 -47q-47 -45 -47 -119zM309 147q0 59 43 103 q41 41 102.5 41t102.5 -41q45 -45 45 -103q0 -59 -45 -104q-43 -43 -102.5 -43t-102.5 43t-43 104z" />
<glyph unicode="@" horiz-adv-x="1388" d="M6 709q0 313 207 520q211 211 516 211q199 0 360.5 -94.5t241.5 -253.5q68 -135 68 -347q0 -217 -123 -346q-113 -111 -272 -110q-150 0 -187 102q-68 -102 -213 -102q-137 0 -225 98q-84 92 -84 262q0 182 108 309q106 125 271 125q78 0 127 -24q53 -27 96 -84l12 102 h181l-62 -555q-2 -6 -2 -28q0 -49 51 -50q72 0 129 101q57 102 58 231q0 233 -147.5 381t-383.5 148q-258 0 -426 -172q-168 -170 -168 -431q0 -125 49 -241q47 -111 142 -199q166 -150 424 -149q162 0 280 88l86 -113q-143 -113 -370 -113q-360 0 -570 248 q-174 199 -174 486zM520 668q0 -84 39 -131.5t109 -47.5q84 0 135 59.5t51 153.5q0 82 -37 125q-41 47 -104 47q-80 0 -135 -61q-58 -63 -58 -145z" />
<glyph unicode="A" horiz-adv-x="1388" d="M12 0l580 1389h203l581 -1389h-282l-150 358h-493l-154 -358h-285zM545 604h297l-148 422z" />
<glyph unicode="B" horiz-adv-x="1089" d="M127 0v1389h287q162 0 235 -15q82 -16 139 -53q158 -102 158 -303q0 -100 -35 -158q-35 -59 -118 -102q117 -47 170 -117q68 -89 67 -227q0 -106 -47 -197q-45 -86 -133 -139q-125 -78 -352 -78h-371zM385 246h127q133 0 197 41q61 41 61 133q0 182 -262 182h-123v-356z M385 854h82q119 0 170 33q53 35 53 108q0 141 -201 142h-104v-283z" />
<glyph unicode="C" horiz-adv-x="1464" d="M57 698q0 297 209 506t504 209q264 0 461 -160q72 -59 112 -114q43 -59 84 -150h-286q-74 96 -158 135q-88 41 -207 41q-217 0 -346 -153q-115 -133 -115 -316q0 -197 138 -334q139 -139 329 -139q96 0 181 39q78 37 163 125h301q-80 -190 -253 -301q-175 -111 -388 -111 q-305 0 -516 211q-213 213 -213 512z" />
<glyph unicode="D" horiz-adv-x="1314" d="M127 0v1389h317q324 0 494 -101q143 -86 223 -241q80 -158 80 -355q0 -205 -92 -373q-88 -160 -250 -241q-156 -78 -448 -78h-324zM385 246h57q227 0 338 61q90 51 145.5 155.5t55.5 229.5q0 129 -57 238q-53 102 -156 155q-115 57 -332 58h-51v-897z" />
<glyph unicode="E" horiz-adv-x="976" d="M127 0v1389h747v-246h-489v-328h469v-246h-469v-323h489v-246h-747z" />
<glyph unicode="F" horiz-adv-x="901" d="M127 0v1389h707v-246h-449v-328h428v-246h-428v-569h-258z" />
<glyph unicode="G" horiz-adv-x="1576" d="M57 696q0 299 213 508q212 209 516 209q229 0 420 -123q195 -125 260 -309h-303q-132 184 -381 184q-213 0 -338 -137q-53 -55 -92 -154q-37 -92 -37 -180q0 -201 139.5 -336t342.5 -135q137 0 243 64q111 66 164 180h-575v242h907v-35q0 -276 -199 -484 q-209 -215 -526 -215q-319 0 -536.5 209t-217.5 512z" />
<glyph unicode="H" horiz-adv-x="1275" d="M127 0v1389h258v-560h496v560h258v-1389h-258v582h-496v-582h-258z" />
<glyph unicode="I" horiz-adv-x="524" d="M127 0v1389h258v-1389h-258z" />
<glyph unicode="J" horiz-adv-x="901" d="M16 330h258q29 -106 123 -107q123 0 123 183v983h258v-992q0 -195 -100 -307q-102 -115 -277 -115q-182 0 -297 127q-43 49 -59 95q-21 53 -29 133z" />
<glyph unicode="K" horiz-adv-x="1163" d="M127 0v1389h258v-601l430 601h311l-524 -682l524 -707h-311l-430 610v-610h-258z" />
<glyph unicode="L" horiz-adv-x="825" d="M127 0v1389h258v-1143h424v-246h-682z" />
<glyph unicode="M" horiz-adv-x="1689" d="M127 0v1389h354l373 -1053l371 1053h354v-1389h-258v1040l-363 -1040h-210l-363 1040v-1040h-258z" />
<glyph unicode="N" horiz-adv-x="1388" d="M127 0v1389h295l573 -1012v1012h258v-1389h-286l-582 1010v-1010h-258z" />
<glyph unicode="O" horiz-adv-x="1576" d="M57 694q0 303 211 512q209 207 520 207q297 0 506 -211t209 -508q0 -301 -207 -512q-205 -207 -510 -207q-307 0 -518 209t-211 510zM315 694q0 -197 137.5 -334t331.5 -137q197 0 330 133q129 129 129 336q0 199 -131 336t-328 137q-199 0 -334 -135t-135 -336z" />
<glyph unicode="P" horiz-adv-x="1050" d="M127 0v1389h344q250 0 356 -64q186 -113 187 -364q0 -125 -47 -220q-49 -100 -136 -151q-59 -37 -137 -49q-80 -12 -227 -13h-82v-528h-258zM385 774h76q145 0 211 33q84 45 84 149q0 63 -33 113q-29 43 -88 59q-68 14 -164 15h-86v-369z" />
<glyph unicode="Q" horiz-adv-x="1576" d="M57 694q0 305 213 512t526.5 207t524.5 -207t211 -518q0 -272 -168 -446q82 -41 141 -41q10 0 51 6v-234q-10 -2 -34 -2q-164 0 -328 113q-158 -109 -387 -109q-315 0 -532.5 209t-217.5 510zM313 694q0 -23 4 -67q92 25 215 24q164 0 332 -71q166 -71 295 -197 q113 115 113 301q0 206 -135 344q-135 137 -344 137q-203 0 -342 -135q-138 -135 -138 -336zM397 426q154 -203 410 -203q88 0 168 37q-229 182 -445 182q-47 0 -133 -16z" />
<glyph unicode="R" horiz-adv-x="1089" d="M127 0v1389h401q137 0 228 -23q84 -20 151 -80q147 -123 148 -342q0 -205 -144 -330q-82 -70 -219 -102l375 -512h-317l-365 532v-532h-258zM385 725h127q147 0 215 49t68 162q0 104 -68 158q-55 49 -227 49h-115v-418z" />
<glyph unicode="S" horiz-adv-x="976" d="M27 397h268q18 -174 188 -174q82 0 135.5 47t53.5 123q0 88 -66 142q-43 35 -239 106q-141 53 -215 150q-74 95 -74 227q0 170 117 280q121 115 286 115q205 0 326 -149q80 -95 86 -246h-266q-6 70 -45 108.5t-103 38.5q-66 0 -104.5 -39t-38.5 -102q0 -76 78 -125 q33 -18 153 -63q170 -63 236 -125q123 -114 123 -289q0 -190 -127 -318q-129 -129 -316 -129q-109 0 -209 45q-94 43 -157 125q-78 100 -90 252z" />
<glyph unicode="T" horiz-adv-x="788" d="M12 1143v246h772v-246h-256v-1143h-258v1143h-258z" />
<glyph unicode="U" horiz-adv-x="1202" d="M127 510v879h258v-879q0 -133 35 -193q57 -94 178 -94q119 0 176 94q33 57 33 193v879h258v-879q0 -231 -94 -356q-61 -82 -162 -131q-96 -47 -213 -48q-123 0 -227.5 55.5t-165.5 151.5q-76 123 -76 328z" />
<glyph unicode="V" horiz-adv-x="1314" d="M14 1389h271l374 -1057l375 1057h271l-539 -1389h-209z" />
<glyph unicode="W" horiz-adv-x="1689" d="M12 1389h264l244 -969l238 969h186l234 -969l245 969h265l-406 -1389h-205l-223 920l-229 -920h-203z" />
<glyph unicode="X" horiz-adv-x="1275" d="M10 0l477 692l-477 697h305l324 -486l332 486h299l-482 -697l482 -692h-299l-332 479l-324 -479h-305z" />
<glyph unicode="Y" horiz-adv-x="1163" d="M6 1389h279l307 -639l307 639h277l-457 -877v-512h-256v512z" />
<glyph unicode="Z" horiz-adv-x="937" d="M35 0v217l524 926h-498v246h805v-232l-522 -911h557v-246h-866z" />
<glyph unicode="[" horiz-adv-x="600" d="M139 352v486q0 252 144 405q59 59 106 84q58 31 160 62v-277q-90 -37 -119 -100q-37 -86 -37 -226v-479q0 -111 37 -190q33 -68 119 -99v-276q-113 29 -184 76q-74 49 -134 139q-92 145 -92 395z" />
<glyph unicode="\" horiz-adv-x="1202" d="M158 1389h176l610 -1389h-176z" />
<glyph unicode="]" horiz-adv-x="600" d="M70 18q90 37 118 101q37 86 37 225v479q0 111 -37 191q-31 61 -118 98v277q115 -29 186 -76q76 -51 131 -139q92 -144 92 -394v-487q0 -252 -143 -406q-86 -92 -266 -145v276z" />
<glyph unicode="^" horiz-adv-x="1126" d="M119 682l336 707h229l336 -707l-195 -94l-256 518l-256 -518z" />
<glyph unicode="_" horiz-adv-x="937" d="M0 -90h940v-170h-940v170z" />
<glyph unicode="`" horiz-adv-x="524" d="M135 877v262q0 123 82 192q70 57 168 58v-125q-61 -12 -86 -37t-25 -72q0 -20 2 -29h109v-249h-250z" />
<glyph unicode="a" horiz-adv-x="1239" d="M57 516q0 244 148 393q152 156 381 156q217 0 340 -164v139h229v-1040h-229v135q-72 -84 -156 -123q-80 -37 -190 -37q-227 0 -375 154t-148 387zM307 512q0 -137 86 -223q84 -84 223 -84q147 0 228 94q76 92 76 213q0 141 -89 233q-86 90 -219 91q-135 0 -219 -91 q-86 -92 -86 -233z" />
<glyph unicode="b" horiz-adv-x="1239" d="M102 0v1389h250v-445q72 72 146 103q78 33 176 32q223 0 375 -157q150 -156 149 -394q0 -217 -121 -370q-141 -182 -385 -183q-115 0 -198 37q-88 39 -164 121v-133h-228zM336 528.5q0 -143.5 86 -233.5t223 -90q131 0 217 90q84 86 84 231q0 139 -86 231.5t-221 92.5 q-131 0 -217 -90q-86 -88 -86 -231.5z" />
<glyph unicode="c" horiz-adv-x="1202" d="M57 520q0 231 158 387q162 158 389 158q231 0 385 -145q92 -82 139 -226h-280q-74 141 -244 142q-131 0 -213 -88q-84 -90 -84 -225.5t88 -227.5q86 -90 215 -90q150 0 238 137h280q-66 -176 -198 -270q-137 -96 -318 -97q-230 0 -393 160q-162 160 -162 385z" />
<glyph unicode="d" horiz-adv-x="1239" d="M57 522.5q0 233.5 149.5 395t371.5 161.5q203 0 323 -131v441h250v-1389h-229v135q-141 -160 -342 -160q-221 0 -373 158q-150 156 -150 389.5zM307 535q0 -139 90 -236q88 -94 221 -94q129 0 216 92q88 94 88 229.5t-90.5 229.5t-219.5 94q-125 0 -215 -92 q-90 -94 -90 -223z" />
<glyph unicode="e" horiz-adv-x="1202" d="M57 516q0 229 160 389t387 160q233 0 385 -158q154 -160 154 -401q0 -45 -10 -96h-805q20 -94 98 -149.5t188 -55.5q82 0 129 22q51 25 101 80h272q-23 -72 -82 -143q-164 -188 -413 -189q-240 0 -402 156t-162 385zM319 629h578q-25 100 -100.5 153.5t-188.5 53.5 q-228 0 -289 -207z" />
<glyph unicode="f" horiz-adv-x="524" d="M18 813v209h91q18 172 84 250q94 117 260 117q20 0 61 -5v-235h-25q-72 0 -100 -29q-28 -28 -31 -98h142v-209h-142v-813h-249v813h-91z" />
<glyph unicode="g" horiz-adv-x="1239" d="M57 528q0 227 146 383q145 154 366 154q227 0 340 -156v131h240v-843q0 -281 -107 -422q-150 -190 -434 -191q-186 0 -332 88q-137 84 -202 244h282q55 -61 115 -86q58 -25 147 -25q279 0 291 332q-76 -90 -153 -125q-80 -37 -189 -37q-223 0 -366.5 155.5t-143.5 397.5z M307 516q0 -141 80 -227q78 -84 215 -84q132 0 215 86q82 84 82 225t-84 232q-82 88 -217 88q-131 0 -211 -86.5t-80 -233.5z" />
<glyph unicode="h" horiz-adv-x="1126" d="M102 0v1389h250v-420q108 98 264 98q230 0 338 -166q70 -102 70 -313v-588h-250v532q0 162 -47 234q-45 70 -156 70q-129 0 -184 -99q-35 -61 -35 -209v-528h-250z" />
<glyph unicode="i" horiz-adv-x="450" d="M102 0v1040h250v-1040h-250zM102 1153v236h250v-236h-250z" />
<glyph unicode="j" horiz-adv-x="487" d="M33 -104q66 12 86 41q16 25 16 139v964h250v-970q0 -223 -111 -328q-96 -90 -241 -90v244zM135 1153v236h250v-236h-250z" />
<glyph unicode="k" horiz-adv-x="1089" d="M102 0v1389h250v-838l332 489h299l-373 -508l432 -532h-335l-355 487v-487h-250z" />
<glyph unicode="l" horiz-adv-x="450" d="M102 0v1389h250v-1389h-250z" />
<glyph unicode="m" horiz-adv-x="1765" d="M102 0v1040h228v-96q55 65 116 92q63 29 156 29q205 0 305 -162q123 162 334 162q121 0 213 -43t141 -123q68 -109 68 -297v-602h-250v571q0 143 -47 201q-51 63 -149 64q-123 0 -175 -99q-35 -61 -34 -225v-512h-250v571q0 143 -43 199q-55 66 -160 66q-133 0 -178 -107 q-25 -59 -25 -217v-512h-250z" />
<glyph unicode="n" horiz-adv-x="1126" d="M102 0v1040h230v-98q129 123 295 123q219 0 323 -150q43 -66 60 -139q16 -72 16 -219v-557h-250v510q0 195 -49 260q-53 66 -149 66q-123 0 -185 -97q-41 -66 -41 -250v-489h-250z" />
<glyph unicode="o" horiz-adv-x="1202" d="M57 520.5q0 227.5 160 384.5q164 160 389 160q236 0 395 -160q162 -162 162 -393q0 -217 -163.5 -377t-391 -160t-391.5 160q-160 158 -160 385.5zM307 524q0 -133 90 -227q90 -92 213 -92t213 92q88 90 88 223t-88 223q-89 92 -215 93q-121 0 -211 -93q-90 -94 -90 -219 z" />
<glyph unicode="p" horiz-adv-x="1239" d="M102 -348v1388h228v-120q125 145 342 145q225 0 372.5 -153.5t147.5 -387.5q0 -237 -148 -393q-147 -156 -372 -156q-184 0 -320 123v-446h-250zM336 522q0 -135 88 -227q86 -90 221 -90q125 0 209 90q86 92 86 223q0 135 -86 227q-84 90 -213 91q-131 0 -217 -91 q-88 -92 -88 -223z" />
<glyph unicode="q" horiz-adv-x="1239" d="M57 524q0 229 152 383q154 158 371 158q223 0 340 -158v133h229v-1388h-250v448q-125 -125 -315 -125q-221 0 -375 158q-152 153 -152 391zM307 518q0 -131 88 -223q86 -90 219 -90q127 0 213 90q86 89 86 221q0 139 -84 229.5t-213 90.5q-135 0 -221 -91 q-88 -92 -88 -227z" />
<glyph unicode="r" horiz-adv-x="600" d="M102 0v1040h228v-100q49 71 98 98q47 27 129 27h18v-240q-223 -6 -223 -245v-580h-250z" />
<glyph unicode="s" horiz-adv-x="825" d="M35 330h252q18 -61 53 -94q33 -31 86 -31q49 0 82 28q31 29 31 74q0 49 -47 80q-35 20 -130 53q-156 51 -223 123q-66 68 -65 185q0 133 100 225q101 92 246 92q162 0 266 -115q70 -76 76 -196h-246q-18 82 -96 82q-43 0 -69.5 -25t-26.5 -63q0 -49 51 -70 q27 -12 125 -43q143 -45 192 -88q96 -76 96 -217q0 -145 -106 -250q-108 -104 -264 -105q-98 0 -178 39q-84 41 -136 107q-55 72 -69 209z" />
<glyph unicode="t" horiz-adv-x="563" d="M16 813v227h123v349h250v-349h150v-227h-150v-813h-250v813h-123z" />
<glyph unicode="u" horiz-adv-x="1126" d="M102 483v557h250v-508q0 -201 49 -262q49 -66 148 -65q135 0 190 96q39 59 39 250v489h250v-1040h-231v100q-72 -72 -137.5 -98.5t-161.5 -26.5q-211 0 -318 154q-43 63 -61 143q-17 68 -17 211z" />
<glyph unicode="v" horiz-adv-x="1050" d="M2 1040h279l239 -688l238 688h280l-417 -1040h-199z" />
<glyph unicode="w" horiz-adv-x="1501" d="M18 1040h269l186 -634l176 634h199l170 -634l190 634h267l-375 -1040h-156l-199 674l-200 -674h-154z" />
<glyph unicode="x" horiz-adv-x="1050" d="M2 0l369 537l-320 503h281l188 -313l185 313h282l-317 -503l368 -537h-299l-219 356l-217 -356h-301z" />
<glyph unicode="y" horiz-adv-x="1089" d="M12 1040h285l231 -673l252 673h287l-600 -1388h-270l196 446z" />
<glyph unicode="z" horiz-adv-x="864" d="M37 0v223l459 594h-406v223h705v-223l-459 -594h495v-223h-794z" />
<glyph unicode="{" horiz-adv-x="636" d="M70 498v151q152 18 151 185v294q0 137 64 201q61 61 204 62q59 0 78 -2v-150q-94 -6 -123 -41q-25 -31 -24 -151v-232q0 -109 -39 -164q-39 -53 -131 -78q94 -20 131 -77q39 -57 39 -164v-230q0 -123 24 -153q27 -33 123 -39v-150q-18 -2 -78 -2q-145 0 -204 60 q-63 63 -64 200v295q1 167 -151 185z" />
<glyph unicode="|" horiz-adv-x="1126" d="M457 0v1389h223v-1389h-223z" />
<glyph unicode="}" horiz-adv-x="636" d="M72 -90q96 6 123 39q25 31 24 153v230q0 111 39 166q39 53 131 77q-94 20 -131 76q-39 57 -39 164v232q0 121 -24 151q-29 35 -123 41v150q18 2 75 2q145 0 207 -62q63 -63 64 -201v-294q0 -166 151 -185v-151q-152 -18 -151 -185v-295q0 -137 -64 -200q-59 -59 -207 -60 q-57 0 -75 2v150z" />
<glyph unicode="~" horiz-adv-x="1126" d="M96 543q59 96 90 135q74 96 189 96q72 0 143 -31l127 -49q109 -43 133 -43q66 0 144 140l120 -140q-78 -125 -133 -170q-61 -49 -139 -49q-66 0 -170 45l-102 41q-84 37 -121 37q-45 0 -88 -43q-8 -8 -62 -90q-6 -2 -12 -21z" />
<glyph unicode="&#xad;" horiz-adv-x="731" d="M47 432v262h658v-262h-658z" />
<glyph unicode="&#x2c6;" horiz-adv-x="1126" d="M119 682l336 707h229l336 -707l-195 -94l-256 518l-256 -518z" />
<glyph unicode="&#x2dc;" horiz-adv-x="845" d="M-473 262q59 96 90 135q74 96 189 96q72 0 143 -31l127 -49q109 -43 133 -43q66 0 144 140l120 -140q-78 -125 -133 -170q-61 -49 -139 -49q-66 0 -170 45l-102 41q-84 37 -121 37q-45 0 -88 -43q-8 -8 -62 -90q-6 -2 -12 -21z" />
<glyph unicode="&#x5b0;" d="M477 -207q0 41 26.5 67.5t67.5 26.5q39 0 66 -26q29 -29 29 -68q0 -37 -29 -65.5t-66 -28.5q-39 0 -67 29q-27 26 -27 65zM477 -440q0 39 27 65q29 29 67.5 29t65.5 -27q29 -29 29 -67q0 -37 -29 -66t-66 -29q-39 0 -67 29q-27 27 -27 66z" />
<glyph unicode="&#x5b1;" d="M186 -207q0 41 27 67.5t68 26.5q39 0 65 -26q29 -29 29 -68q0 -37 -29 -65.5t-65 -28.5q-39 0 -68 29q-27 26 -27 65zM317 -440q0 39 29 67q27 27 68 27q39 0 65 -27q29 -29 29 -67q0 -37 -28.5 -66t-65.5 -29q-39 0 -68 29t-29 66zM451 -207q0 41 26.5 67.5t67.5 26.5 t67.5 -26.5t26.5 -67.5q0 -39 -27 -65q-29 -29 -67.5 -29t-67.5 29q-26 26 -26 65zM739 -207q0 41 27 67.5t65 26.5q41 0 68 -26.5t27 -67.5q0 -39 -27 -65q-29 -29 -68 -29q-37 0 -65 29q-27 26 -27 65zM739 -440q0 41 27 67.5t65 26.5q41 0 68 -26.5t27 -67.5 q0 -39 -27 -66q-29 -29 -68 -29q-37 0 -65 29q-27 27 -27 66z" />
<glyph unicode="&#x5b2;" d="M160 -113h442v-153h-442v153zM709 -207q0 41 26.5 67.5t67.5 26.5q39 0 65 -26q29 -29 29 -68q0 -37 -28.5 -65.5t-65.5 -28.5q-39 0 -68 29q-26 26 -26 65zM709 -440q0 41 26.5 67.5t67.5 26.5q39 0 65 -27q29 -29 29 -67q0 -37 -28.5 -66t-65.5 -29q-39 0 -68 29 q-26 27 -26 66z" />
<glyph unicode="&#x5b3;" d="M174 -113h444v-153h-145v-223h-154v223h-145v153zM723 -207q0 39 29 68q27 27 65.5 26.5t65.5 -26.5q29 -29 28 -68q0 -37 -28.5 -65.5t-65.5 -28.5t-65.5 28.5t-28.5 65.5zM723 -438q0 37 28.5 65.5t65.5 28.5t65.5 -28.5t28.5 -65.5q0 -39 -28.5 -68t-65.5 -29 t-65.5 29t-28.5 68z" />
<glyph unicode="&#x5b4;" d="M463 -207q0 41 26.5 67.5t67.5 26.5q39 0 65.5 -26.5t26.5 -67.5q0 -39 -26 -65q-29 -29 -66 -29q-39 0 -68 29q-26 26 -26 65z" />
<glyph unicode="&#x5b5;" d="M324 -207q0 39 28 68q27 27 66 26q41 0 67.5 -26.5t26.5 -67.5q0 -39 -27 -65q-29 -29 -67 -29q-37 0 -65.5 28.5t-28.5 65.5zM600 -207q0 39 27 66q29 29 67.5 28.5t67.5 -28.5q27 -27 26.5 -66t-26.5 -65q-29 -29 -68 -29t-67 29q-27 26 -27 65z" />
<glyph unicode="&#x5b6;" d="M301 -207q0 39 29 68q27 27 65.5 26.5t65.5 -26.5q29 -29 28 -68q0 -37 -28.5 -65.5t-65.5 -28.5t-65.5 28.5t-28.5 65.5zM434 -440q0 41 26.5 67.5t67.5 26.5q39 0 66 -27q29 -29 29 -67q0 -37 -29 -66t-66 -29q-39 0 -67 29q-27 27 -27 66zM567 -207q0 41 27 67.5 t68 26.5q39 0 65 -26q29 -29 29 -68q0 -37 -29 -65.5t-65 -28.5q-39 0 -68 29q-27 26 -27 65z" />
<glyph unicode="&#x5b7;" d="M307 -113h443v-153h-443v153z" />
<glyph unicode="&#x5b8;" d="M322 -113h442v-153h-143v-178h-154v178h-145v153z" />
<glyph unicode="&#x5b9;" d="M-94 1333q0 41 26.5 67.5t67.5 26.5t67.5 -26.5t26.5 -67.5q0 -39 -26.5 -65.5t-67.5 -26.5t-67.5 26.5t-26.5 65.5z" />
<glyph unicode="&#x5bb;" d="M172 -207q0 39 29 68q27 27 65 26q41 0 68 -26q29 -29 28 -68q0 -37 -28.5 -65.5t-67.5 -28.5q-37 0 -65.5 28.5t-28.5 65.5zM406 -317q0 41 26.5 67.5t67.5 26.5t67.5 -26.5t26.5 -67.5q0 -39 -27 -66q-29 -29 -67.5 -29t-67.5 29q-26 27 -26 66zM637 -428 q0 37 28.5 65.5t67.5 28.5q37 0 65.5 -28.5t28.5 -65.5t-28.5 -65.5t-65.5 -28.5q-39 0 -67.5 28.5t-28.5 65.5z" />
<glyph unicode="&#x5bc;" d="M422 563q0 41 26.5 67.5t65.5 26.5q41 0 67.5 -26.5t26.5 -67.5q0 -39 -26 -65q-29 -29 -68 -29q-37 0 -65 29q-27 26 -27 65z" />
<glyph unicode="&#x5bd;" d="M-78 -113h156v-413h-156v413z" />
<glyph unicode="&#x5be;" horiz-adv-x="763" d="M61 864v262h658v-262h-658z" />
<glyph unicode="&#x5bf;" d="M-221 1241v154h442v-154h-442z" />
<glyph unicode="&#x5c0;" horiz-adv-x="364" d="M76 -113v1354h217l-2 -1354h-215z" />
<glyph unicode="&#x5c1;" d="M1188 1278q0 39 26 65q29 29 68 29q37 0 65.5 -28.5t28.5 -65.5q0 -39 -28 -68q-27 -27 -66 -26q-41 0 -67.5 26.5t-26.5 67.5z" />
<glyph unicode="&#x5c2;" d="M147 1278q0 39 27 65q29 29 66 29q39 0 67 -29q27 -27 27 -65q0 -41 -26.5 -67.5t-67.5 -26.5q-39 0 -66 26.5t-27 67.5z" />
<glyph unicode="&#x5c3;" horiz-adv-x="421" d="M57 147q0 59 43 103q41 41 102.5 41t102.5 -41q43 -43 43 -103q0 -61 -43 -104t-102.5 -43t-102.5 43t-43 104zM57 717q0 61 43 104t102.5 43t102.5 -43t43 -104q0 -59 -43 -103q-41 -41 -102.5 -41t-102.5 41q-43 44 -43 103z" />
<glyph unicode="&#x5c4;" d="M-94 1333q0 41 26.5 67.5t67.5 26.5t67.5 -26.5t26.5 -67.5q0 -39 -26.5 -65.5t-67.5 -26.5t-67.5 26.5t-26.5 65.5z" />
<glyph unicode="&#x5d0;" horiz-adv-x="1193" d="M59 1126h306l335 -514q82 41 82 154v98h-120v262h260q68 0 110 -43q41 -41 41 -108v-174q0 -313 -219 -420l248 -381h-305l-410 627q-27 -25 -14 -127l78 -500h-379v262h78l-41 344q-12 123 137 236z" />
<glyph unicode="&#x5d1;" horiz-adv-x="1169" d="M61 0v262h639v602h-639v262h781q68 0 108.5 -38.5t40.5 -110.5v-715h86v-262h-1016z" />
<glyph unicode="&#x5d2;" horiz-adv-x="813" d="M4 0l109 330h262l-88 534h-119v262h260q63 0 102 -39q40 -40 50 -110l139 -977h-260l-74 262v4l-88 -266h-293z" />
<glyph unicode="&#x5d3;" horiz-adv-x="1075" d="M27 864v262h845q66 0 107 -39q43 -40 43 -110v-113h-74v-215v-649h-291v649v215h-630z" />
<glyph unicode="&#x5d4;" horiz-adv-x="1132" d="M76 0v649h293l-2 -649h-291zM76 864v262h813q70 0 108 -39q41 -41 41 -110v-977h-290v864h-672z" />
<glyph unicode="&#x5d5;" horiz-adv-x="561" d="M57 864v262h260q70 0 109 -39q41 -41 41 -110v-977h-291v864h-119z" />
<glyph unicode="&#x5d6;" horiz-adv-x="593" d="M61 864v262h338q72 0 111 -39q41 -41 41 -110v-113h-74l-59 -215v-649h-293v649l61 215h-125z" />
<glyph unicode="&#x5d7;" horiz-adv-x="1155" d="M66 864v262h845q70 0 109 -39q41 -41 41 -110v-113v-864h-291v864h-373v-864h-291v649l62 215h-102z" />
<glyph unicode="&#x5d8;" horiz-adv-x="1148" d="M68 864v262h266q68 0 108 -39q43 -40 43 -110v-113h-39l-57 -215v-387h375v424q0 96 -49 139l-58 -176h-165l145 477q199 -16 307 -133q113 -123 113 -336v-657h-959v649l60 215h-90z" />
<glyph unicode="&#x5d9;" horiz-adv-x="526" d="M59 864v262h263q70 0 108 -39q41 -41 41 -110v-402h-291v289h-121z" />
<glyph unicode="&#x5da;" horiz-adv-x="1081" d="M25 864v262h813q68 0 108 -39q43 -40 43 -110v-1428h-293v1315h-671z" />
<glyph unicode="&#x5db;" horiz-adv-x="1093" d="M61 0v262h609q27 0 47 21q18 18 18 47v534h-674v262h816q66 0 106 -39q43 -40 43 -110v-621q0 -356 -356 -356h-609z" />
<glyph unicode="&#x5dc;" horiz-adv-x="1060" d="M33 864v436h291v-174h522q68 0 108.5 -38.5t40.5 -110.5v-508q0 -221 -121 -346q-121 -123 -348 -123h-37v262h37q178 0 179 180v422h-672z" />
<glyph unicode="&#x5dd;" horiz-adv-x="1155" d="M66 864v262h845q70 0 109 -39q41 -41 41 -110v-113v-864h-955v649l62 215h-102zM397 262h373v602h-373v-602z" />
<glyph unicode="&#x5de;" horiz-adv-x="1200" d="M61 864v262h209q86 0 123 -55q98 55 225 55q205 0 346.5 -141t141.5 -346v-639h-549v262h258v404q0 84 -57.5 141t-139 57t-139 -57t-57.5 -141v-666h-293v864h-68z" />
<glyph unicode="&#x5df;" horiz-adv-x="532" d="M61 864v262h267q66 0 106 -39q43 -40 43 -110v-113l-59 -215v-1100h-293v1100l61 215h-125z" />
<glyph unicode="&#x5e0;" horiz-adv-x="630" d="M47 0v262h199v602h-121v262h262q68 0 109 -38.5t41 -110.5v-977h-490z" />
<glyph unicode="&#x5e1;" horiz-adv-x="1120" d="M61 864v262h846q70 0 109 -39q43 -43 43 -110v-113v-405q0 -197 -141 -338q-139 -139 -338 -139q-197 0 -336 139q-141 141 -142 340v188l62 215h-103zM395 430q0 -78 54 -131q55 -55 131 -55q78 0 133 55q53 53 53 131v434h-371v-434z" />
<glyph unicode="&#x5e2;" horiz-adv-x="1144" d="M45 0v262h193v602h-105v262h244q72 0 110 -39q41 -41 41 -110v-715h191q27 0 47 21q18 18 18 47v534h-102v262h244q72 0 110 -39q41 -41 41 -110v-621q0 -356 -358 -356h-674z" />
<glyph unicode="&#x5e3;" horiz-adv-x="1091" d="M45 422v227l59 215h-59v262h805q66 0 106 -39q43 -40 43 -110v-113v-1315h-290v1315h-373l-35 -170h203v-272h-459z" />
<glyph unicode="&#x5e4;" horiz-adv-x="1097" d="M76 0v262h596q27 0 47 20.5t20 47.5v534h-372l-37 -170h205v-272h-459v227l59 215h-59v262h803q68 0 108 -39q43 -40 43 -110v-113v-508q0 -356 -358 -356h-596z" />
<glyph unicode="&#x5e5;" horiz-adv-x="1060" d="M57 864v262h260q70 0 109 -39q41 -41 41 -110v-328h94q178 0 178 178v37h-118v262h260q66 0 108.5 -43t42.5 -108v-121q0 -219 -123 -346q-119 -123 -348 -123h-94v-836h-291v1315h-119z" />
<glyph unicode="&#x5e6;" horiz-adv-x="1130" d="M72 0v262h563l-442 445v157h-121v262h260q72 0 110 -39q41 -41 41 -110v-160l123 -123q68 4 109 47q41 45 41 123h-121v262h262q66 0 109 -43q41 -41 41 -108v-76q0 -311 -226 -420l215 -217v-262h-964z" />
<glyph unicode="&#x5e7;" horiz-adv-x="1103" d="M76 -451v1100h291v-1100h-291zM76 864v262h813q70 0 108 -39q41 -41 41 -110v-508q0 -221 -120 -346q-119 -123 -349 -123h-37v262h37q178 0 179 180v422h-672z" />
<glyph unicode="&#x5e8;" horiz-adv-x="1081" d="M25 864v262h813q68 0 108 -39q43 -40 43 -110v-977h-293v864h-671z" />
<glyph unicode="&#x5e9;" horiz-adv-x="1519" d="M68 864v262h243q72 0 111 -39q41 -41 41 -110v-113h-74v-602h238v602h-70v262h211q70 0 109 -39q43 -43 43 -110v-715h172q29 0 47 18.5t18 49.5v534h-121v262h262q70 0 109 -39q41 -41 41 -110v-715q0 -117 -68 -190q-66 -72 -194 -72h-1088v649l60 215h-90z" />
<glyph unicode="&#x5ea;" horiz-adv-x="1175" d="M53 0v262h105v387l59 215h-100v262h815q68 0 108.5 -38.5t40.5 -110.5v-113v-864h-290v864h-342v-864h-291h-105z" />
<glyph unicode="&#x5f0;" horiz-adv-x="1122" d="M57 864v262h260q70 0 109 -39q41 -41 41 -110v-977h-291v864h-119zM618 864v262h261q72 0 110 -39q41 -41 41 -110v-977h-291v864h-121z" />
<glyph unicode="&#x5f1;" horiz-adv-x="1089" d="M59 864v262h263q70 0 108 -39q41 -41 41 -110v-402h-291v289h-121zM584 864v262h262q70 0 108 -39q41 -41 41 -110v-977h-290v864h-121z" />
<glyph unicode="&#x5f2;" horiz-adv-x="1054" d="M0 0zM0 864v262h262q70 0 109 -39q41 -41 41 -110v-402h-291v289h-121zM528 864v262h260q72 0 111 -39q41 -41 41 -110v-402h-291v289h-121z" />
<glyph unicode="&#x5f3;" horiz-adv-x="364" d="M66 694v432h274l-156 -432h-118z" />
<glyph unicode="&#x5f4;" horiz-adv-x="743" d="M66 694v432h274l-156 -432h-118zM444 694v432h273l-154 -432h-119z" />
<glyph unicode="&#x2000;" horiz-adv-x="802" />
<glyph unicode="&#x2001;" horiz-adv-x="1607" />
<glyph unicode="&#x2002;" horiz-adv-x="802" />
<glyph unicode="&#x2003;" horiz-adv-x="1607" />
<glyph unicode="&#x2004;" horiz-adv-x="534" />
<glyph unicode="&#x2005;" horiz-adv-x="401" />
<glyph unicode="&#x2006;" horiz-adv-x="266" />
<glyph unicode="&#x2007;" horiz-adv-x="266" />
<glyph unicode="&#x2008;" horiz-adv-x="200" />
<glyph unicode="&#x2009;" horiz-adv-x="319" />
<glyph unicode="&#x200a;" horiz-adv-x="88" />
<glyph unicode="&#x2010;" horiz-adv-x="731" d="M47 432v262h658v-262h-658z" />
<glyph unicode="&#x2011;" horiz-adv-x="731" d="M47 432v262h658v-262h-658z" />
<glyph unicode="&#x2012;" horiz-adv-x="731" d="M47 432v262h658v-262h-658z" />
<glyph unicode="&#x2013;" horiz-adv-x="1024" d="M47 432v262h948v-262h-948z" />
<glyph unicode="&#x2014;" horiz-adv-x="2048" d="M47 432v262h1972v-262h-1972z" />
<glyph unicode="&#x2018;" horiz-adv-x="524" d="M135 877v262q0 123 82 192q70 57 168 58v-125q-61 -12 -86 -37t-25 -72q0 -20 2 -29h109v-249h-250z" />
<glyph unicode="&#x2019;" horiz-adv-x="364" d="M66 694v432h274l-156 -432h-118z" />
<glyph unicode="&#x201c;" horiz-adv-x="743" d="M66 694v432h274l-156 -432h-118zM444 694v432h273l-154 -432h-119z" />
<glyph unicode="&#x201d;" horiz-adv-x="743" d="M66 694v432h274l-156 -432h-118zM444 694v432h273l-154 -432h-119z" />
<glyph unicode="&#x2026;" horiz-adv-x="1177" d="M811 147q0 59 43 103q41 41 102 41t102 -41q43 -43 43 -103q0 -61 -43 -104t-102 -43t-102 43t-43 104zM420 147q0 59 43 103q41 41 102 41t102 -41q43 -43 43 -103q0 -61 -43 -104t-102 -43t-102 43t-43 104zM27 147q0 59 43 103q41 41 102 41t102 -41q43 -43 43 -103 q0 -61 -43 -104t-102 -43t-102 43t-43 104z" />
<glyph unicode="&#x202f;" horiz-adv-x="319" />
<glyph unicode="&#x2039;" horiz-adv-x="1126" d="M92 485v185l957 424v-220l-641 -294l641 -299v-220z" />
<glyph unicode="&#x203a;" horiz-adv-x="1126" d="M90 61v220l643 294l-643 299v220l957 -424v-185z" />
<glyph unicode="&#x205f;" horiz-adv-x="401" />
<glyph unicode="&#x2122;" horiz-adv-x="2480" d="M915 0v1389h354l373 -1053l371 1053h354v-1389h-258v1040l-363 -1040h-210l-363 1040v-1040h-258zM12 1143v246h772v-246h-256v-1143h-258v1143h-258z" />
<glyph unicode="&#xfb00;" horiz-adv-x="1050" d="M544 813v209h91q18 172 84 250q94 117 260 117q20 0 61 -5v-235h-25q-72 0 -100 -29q-28 -28 -31 -98h142v-209h-142v-813h-249v813h-91zM18 813v209h91q18 172 84 250q94 117 260 117q20 0 61 -5v-235h-25q-72 0 -100 -29q-28 -28 -31 -98h142v-209h-142v-813h-249v813 h-91z" />
<glyph unicode="&#xfb01;" horiz-adv-x="976" d="M628 0v1040h250v-1040h-250zM628 1153v236h250v-236h-250zM18 813v209h91q18 172 84 250q94 117 260 117q20 0 61 -5v-235h-25q-72 0 -100 -29q-28 -28 -31 -98h142v-209h-142v-813h-249v813h-91z" />
<glyph unicode="&#xfb02;" horiz-adv-x="976" d="M628 0v1389h250v-1389h-250zM18 813v209h91q18 172 84 250q94 117 260 117q20 0 61 -5v-235h-25q-72 0 -100 -29q-28 -28 -31 -98h142v-209h-142v-813h-249v813h-91z" />
<glyph unicode="&#xfb03;" horiz-adv-x="1501" d="M1155 0v1040h250v-1040h-250zM1155 1153v236h250v-236h-250zM544 813v209h91q18 172 84 250q94 117 260 117q20 0 61 -5v-235h-25q-72 0 -100 -29q-28 -28 -31 -98h142v-209h-142v-813h-249v813h-91zM18 813v209h91q18 172 84 250q94 117 260 117q20 0 61 -5v-235h-25 q-72 0 -100 -29q-28 -28 -31 -98h142v-209h-142v-813h-249v813h-91z" />
<glyph unicode="&#xfb04;" horiz-adv-x="1501" d="M1155 0v1389h250v-1389h-250zM544 813v209h91q18 172 84 250q94 117 260 117q20 0 61 -5v-235h-25q-72 0 -100 -29q-28 -28 -31 -98h142v-209h-142v-813h-249v813h-91zM18 813v209h91q18 172 84 250q94 117 260 117q20 0 61 -5v-235h-25q-72 0 -100 -29q-28 -28 -31 -98 h142v-209h-142v-813h-249v813h-91z" />
<glyph unicode="&#xfb06;" horiz-adv-x="1388" d="M843 813v227h123v349h250v-349h150v-227h-150v-813h-250v813h-123zM35 330h252q18 -61 53 -94q33 -31 86 -31q49 0 82 28q31 29 31 74q0 49 -47 80q-35 20 -130 53q-156 51 -223 123q-66 68 -65 185q0 133 100 225q101 92 246 92q162 0 266 -115q70 -76 76 -196h-246 q-18 82 -96 82q-43 0 -69.5 -25t-26.5 -63q0 -49 51 -70q27 -12 125 -43q143 -45 192 -88q96 -76 96 -217q0 -145 -106 -250q-108 -104 -264 -105q-98 0 -178 39q-84 41 -136 107q-55 72 -69 209z" />
<glyph unicode="&#xfb1d;" horiz-adv-x="526" d="M59 864v262h263q70 0 108 -39q41 -41 41 -110v-402h-291v289h-121zM193 360q0 39 28 68q27 27 66 27q41 0 67.5 -27t26.5 -68q0 -39 -27 -65q-29 -29 -67 -29q-37 0 -65.5 28.5t-28.5 65.5z" />
<glyph unicode="&#xfb1e;" d="M-231 1423h131q0 -61 57 -61h86q57 0 57 61h131q0 -92 -38.5 -137t-149.5 -45h-86q-113 0 -150 45q-38 49 -38 137z" />
<glyph unicode="&#xfb1f;" horiz-adv-x="1054" d="M0 0zM0 864v262h262q70 0 109 -39q41 -41 41 -110v-402h-291v289h-121zM342 262v154h442v-154h-442zM528 864v262h260q72 0 111 -39q41 -41 41 -110v-402h-291v289h-121z" />
<glyph unicode="&#xfb20;" horiz-adv-x="1144" d="M45 0v262h193v602h-105v262h244q72 0 110 -39q41 -41 41 -110v-715h191q27 0 47 21q18 18 18 47v534h-102v262h244q72 0 110 -39q41 -41 41 -110v-621q0 -356 -358 -356h-674z" />
<glyph unicode="&#xfb21;" horiz-adv-x="1193" d="M59 1126h306l335 -514q82 41 82 154v98h-120v262h260q68 0 110 -43q41 -41 41 -108v-174q0 -313 -219 -420l248 -381h-305l-410 627q-27 -25 -14 -127l78 -500h-379v262h78l-41 344q-12 123 137 236z" />
<glyph unicode="&#xfb22;" horiz-adv-x="1075" d="M27 864v262h845q66 0 107 -39q43 -40 43 -110v-113h-74v-215v-649h-291v649v215h-630z" />
<glyph unicode="&#xfb23;" horiz-adv-x="1132" d="M76 0v649h293l-2 -649h-291zM76 864v262h813q70 0 108 -39q41 -41 41 -110v-977h-290v864h-672z" />
<glyph unicode="&#xfb24;" horiz-adv-x="1093" d="M61 0v262h609q27 0 47 21q18 18 18 47v534h-674v262h816q66 0 106 -39q43 -40 43 -110v-621q0 -356 -356 -356h-609z" />
<glyph unicode="&#xfb25;" horiz-adv-x="1060" d="M33 864v436h291v-174h522q68 0 108.5 -38.5t40.5 -110.5v-508q0 -221 -121 -346q-121 -123 -348 -123h-37v262h37q178 0 179 180v422h-672z" />
<glyph unicode="&#xfb26;" horiz-adv-x="1155" d="M66 864v262h845q70 0 109 -39q41 -41 41 -110v-113v-864h-955v649l62 215h-102zM397 262h373v602h-373v-602z" />
<glyph unicode="&#xfb27;" horiz-adv-x="1081" d="M25 864v262h813q68 0 108 -39q43 -40 43 -110v-977h-293v864h-671z" />
<glyph unicode="&#xfb28;" horiz-adv-x="1175" d="M53 0v262h105v387l59 215h-100v262h815q68 0 108.5 -38.5t40.5 -110.5v-113v-864h-290v864h-342v-864h-291h-105z" />
<glyph unicode="&#xfb29;" horiz-adv-x="1126" d="M96 586v221h361v367h225v-367h360v-221h-946z" />
<glyph unicode="&#xfb2a;" horiz-adv-x="1519" d="M68 864v262h243q72 0 111 -39q41 -41 41 -110v-113h-74v-602h238v602h-70v262h211q70 0 109 -39q43 -43 43 -110v-715h172q29 0 47 18.5t18 49.5v534h-121v262h262q70 0 109 -39q41 -41 41 -110v-715q0 -117 -68 -190q-66 -72 -194 -72h-1088v649l60 215h-90zM1188 1278 q0 39 26 65q29 29 68 29q37 0 65.5 -28.5t28.5 -65.5q0 -39 -28 -68q-27 -27 -66 -26q-41 0 -67.5 26.5t-26.5 67.5z" />
<glyph unicode="&#xfb2b;" horiz-adv-x="1519" d="M68 864v262h243q72 0 111 -39q41 -41 41 -110v-113h-74v-602h238v602h-70v262h211q70 0 109 -39q43 -43 43 -110v-715h172q29 0 47 18.5t18 49.5v534h-121v262h262q70 0 109 -39q41 -41 41 -110v-715q0 -117 -68 -190q-66 -72 -194 -72h-1088v649l60 215h-90zM147 1278 q0 39 27 65q29 29 66 29q39 0 67 -29q27 -27 27 -65q0 -41 -26.5 -67.5t-67.5 -26.5q-39 0 -66 26.5t-27 67.5z" />
<glyph unicode="&#xfb2c;" horiz-adv-x="1519" d="M0 0zM0 864v262h244q70 0 108 -39q43 -43 43 -110v-113h-73v-602h237v602h-70v262h211q70 0 109 -39q43 -43 43 -110v-715h172q29 0 47.5 18.5t18.5 49.5v534h-121v262h262q70 0 108 -39q41 -41 41 -110v-715q0 -117 -67 -190q-66 -72 -195 -72h-1087v649l59 215h-90z M877 563q0 41 26.5 67.5t65.5 26.5q41 0 67.5 -26.5t26.5 -67.5q0 -39 -27 -65q-29 -29 -67 -29q-37 0 -66 29q-26 26 -26 65zM1188 1278q0 39 26 65q29 29 68 29q37 0 65.5 -28.5t28.5 -65.5q0 -39 -28 -68q-27 -27 -66 -26q-41 0 -67.5 26.5t-26.5 67.5z" />
<glyph unicode="&#xfb2d;" horiz-adv-x="1519" d="M0 0zM0 864v262h244q70 0 108 -39q43 -43 43 -110v-113h-73v-602h237v602h-70v262h211q70 0 109 -39q43 -43 43 -110v-715h172q29 0 47.5 18.5t18.5 49.5v534h-121v262h262q70 0 108 -39q41 -41 41 -110v-715q0 -117 -67 -190q-66 -72 -195 -72h-1087v649l59 215h-90z M147 1278q0 39 27 65q29 29 66 29q39 0 67 -29q27 -27 27 -65q0 -41 -26.5 -67.5t-67.5 -26.5q-39 0 -66 26.5t-27 67.5zM877 563q0 41 26.5 67.5t65.5 26.5q41 0 67.5 -26.5t26.5 -67.5q0 -39 -27 -65q-29 -29 -67 -29q-37 0 -66 29q-26 26 -26 65z" />
<glyph unicode="&#xfb2e;" horiz-adv-x="1193" d="M59 1126h306l335 -514q82 41 82 154v98h-120v262h260q68 0 110 -43q41 -41 41 -108v-174q0 -313 -219 -420l248 -381h-305l-410 627q-27 -25 -14 -127l78 -500h-379v262h78l-41 344q-12 123 137 236zM336 -113h444v-153h-444v153z" />
<glyph unicode="&#xfb2f;" horiz-adv-x="1193" d="M59 1126h306l335 -514q82 41 82 154v98h-120v262h260q68 0 110 -43q41 -41 41 -108v-174q0 -313 -219 -420l248 -381h-305l-410 627q-27 -25 -14 -127l78 -500h-379v262h78l-41 344q-12 123 137 236zM336 -113h444v-153h-145v-178h-154v178h-145v153z" />
<glyph unicode="&#xfb30;" horiz-adv-x="1193" d="M59 1126h306l335 -514q82 41 82 154v98h-120v262h260q68 0 110 -43q41 -41 41 -108v-174q0 -313 -219 -420l248 -381h-305l-410 627q-18 -14 -20 -47q-2 -20 6 -80l78 -500h-379v262h78l-41 344q-2 29 4 64q6 31 20 53q20 35 31 45q27 31 33 35q18 12 30 24q10 10 19 15z M446 180q0 39 29 68q27 27 66 26q41 0 67.5 -26.5t26.5 -67.5q0 -39 -27 -65q-29 -29 -67 -29q-37 0 -66 28.5t-29 65.5z" />
<glyph unicode="&#xfb31;" horiz-adv-x="1169" d="M61 0v262h639v602h-639v262h781q68 0 108.5 -38.5t40.5 -110.5v-715h86v-262h-1016zM362 563q0 41 27 67.5t68 26.5t67.5 -26.5t26.5 -67.5q0 -39 -27 -65q-29 -29 -67.5 -29t-67.5 29q-27 26 -27 65z" />
<glyph unicode="&#xfb32;" horiz-adv-x="813" d="M4 0l109 330h262l-88 534h-119v262h260q63 0 102 -39q40 -40 50 -110l139 -977h-260l-74 262v4l-88 -266h-293zM70 563q0 41 26.5 67.5t67.5 26.5q39 0 65 -26q29 -29 29 -68q0 -37 -28.5 -65.5t-65.5 -28.5q-39 0 -68 29q-26 26 -26 65z" />
<glyph unicode="&#xfb33;" horiz-adv-x="1075" d="M27 864v262h845q66 0 107 -39q43 -40 43 -110v-113h-74v-215v-649h-291v649v215h-630zM352 563q0 41 27 67.5t65 26.5q41 0 68 -26.5t27 -67.5q0 -39 -27 -65q-29 -29 -68 -29q-37 0 -65 29q-27 26 -27 65z" />
<glyph unicode="&#xfb34;" horiz-adv-x="1132" d="M76 0v649h293l-2 -649h-291zM76 864v262h813q70 0 108 -39q41 -41 41 -110v-977h-290v864h-672zM465 563q0 41 26.5 67.5t65.5 26.5q41 0 67.5 -26.5t26.5 -67.5q0 -39 -26 -65q-29 -29 -68 -29q-37 0 -65 29q-27 26 -27 65z" />
<glyph unicode="&#xfb35;" horiz-adv-x="589" d="M2 563q0 41 26.5 67.5t67.5 26.5q39 0 66 -26q29 -29 28 -68q0 -37 -28.5 -65.5t-65.5 -28.5q-39 0 -67 29q-27 26 -27 65zM84 864v262h262q70 0 109 -39q41 -41 41 -110v-977h-291v864h-121z" />
<glyph unicode="&#xfb36;" horiz-adv-x="673" d="M2 563q0 41 26.5 67.5t67.5 26.5q39 0 66 -26q29 -29 28 -68q0 -37 -28.5 -65.5t-65.5 -28.5q-39 0 -67 29q-27 26 -27 65zM141 864v262h338q70 0 109 -39q41 -41 41 -110v-113h-72l-61 -215v-649h-291v649l59 215h-123z" />
<glyph unicode="&#xfb38;" horiz-adv-x="1148" d="M68 864v262h266q68 0 108 -39q43 -40 43 -110v-113h-39l-57 -215v-387h375v424q0 96 -49 139l-58 -176h-165l145 477q199 -16 307 -133q113 -123 113 -336v-657h-959v649l60 215h-90zM487 457q0 41 27 67.5t66 26.5q41 0 67.5 -26.5t26.5 -67.5t-26.5 -68t-67.5 -27 q-39 0 -66 27t-27 68z" />
<glyph unicode="&#xfb39;" horiz-adv-x="548" d="M2 698q0 41 26.5 68t67.5 27q39 0 66 -27q29 -29 28 -68q0 -37 -28.5 -65.5t-65.5 -28.5q-39 0 -67 29q-27 26 -27 65zM82 864v262h262q70 0 109 -39q41 -41 41 -110v-402h-291v289h-121z" />
<glyph unicode="&#xfb3a;" horiz-adv-x="1081" d="M25 864v262h813q68 0 108 -39q43 -40 43 -110v-1428h-293v1315h-671zM362 563q0 41 27 67.5t68 26.5t67.5 -26.5t26.5 -67.5q0 -39 -27 -65q-29 -29 -67.5 -29t-67.5 29q-27 26 -27 65z" />
<glyph unicode="&#xfb3b;" horiz-adv-x="1093" d="M61 0v262h609q27 0 47 21q18 18 18 47v534h-674v262h816q66 0 106 -39q43 -40 43 -110v-621q0 -172 -90 -266q-88 -90 -266 -90h-609zM408 563q0 41 26.5 67.5t67.5 26.5t67.5 -26.5t26.5 -67.5q0 -39 -27 -65q-29 -29 -67.5 -29t-67.5 29q-26 26 -26 65z" />
<glyph unicode="&#xfb3c;" horiz-adv-x="1060" d="M33 864v436h291v-174h522q68 0 108.5 -38.5t40.5 -110.5v-508q0 -221 -121 -346q-121 -123 -348 -123h-37v262h37q178 0 179 180v422h-672zM375 563q0 41 26.5 67.5t65.5 26.5q41 0 67.5 -26.5t26.5 -67.5q0 -39 -26 -65q-29 -29 -68 -29q-37 0 -66 29q-26 26 -26 65z " />
<glyph unicode="&#xfb3e;" horiz-adv-x="1200" d="M61 862v264h209q86 0 123 -55v-2q102 57 225 57q203 0 347 -143q141 -141 141 -346v-639h-549v264h258v404q0 82 -57.5 139t-139 57t-139 -57t-57.5 -139v-668h-293v864h-68zM532 563q0 41 27 67.5t68 26.5q39 0 65.5 -26.5t26.5 -67.5q0 -39 -27 -65q-29 -29 -65 -29 q-39 0 -68 29q-27 26 -27 65z" />
<glyph unicode="&#xfb40;" horiz-adv-x="630" d="M25 563q0 41 26.5 67.5t67.5 26.5q39 0 65 -26q29 -29 29 -68q0 -37 -28.5 -65.5t-65.5 -28.5q-39 0 -68 29q-26 26 -26 65zM47 0v262h199v602h-121v262h262q68 0 109 -38.5t41 -110.5v-977h-490z" />
<glyph unicode="&#xfb41;" horiz-adv-x="1120" d="M61 864v262h846q70 0 109 -39q43 -43 43 -110v-113v-405q0 -197 -141 -338q-139 -139 -338 -139q-197 0 -336 139q-141 141 -142 340v188l62 215h-103zM395 430q0 -78 54 -131q55 -55 131 -55q78 0 133 55q53 53 53 131v434h-371v-434zM489 563q0 41 27 67.5t66 26.5 q41 0 67.5 -26.5t26.5 -67.5q0 -39 -27 -65q-29 -29 -67 -29q-37 0 -66 29q-27 26 -27 65z" />
<glyph unicode="&#xfb43;" horiz-adv-x="1091" d="M45 422v227l59 215h-59v262h805q66 0 106 -39q43 -40 43 -110v-113v-1315h-290v1315h-373l-35 -170h203v-272h-459zM512 698q0 41 26.5 68t65.5 27q41 0 67.5 -27t26.5 -68q0 -39 -26 -65q-29 -29 -68 -29q-37 0 -65 29q-27 26 -27 65z" />
<glyph unicode="&#xfb44;" horiz-adv-x="1097" d="M76 2v262h596q27 0 47 20.5t20 45.5v536h-372l-37 -170h205v-274h-459v227l59 217h-59v262h803q68 0 108 -38q43 -40 43 -111v-113v-508q0 -172 -90 -266q-88 -90 -268 -90h-596zM543 696q0 41 26.5 68t67.5 27t67.5 -27t26.5 -68q0 -39 -26 -65q-29 -29 -68 -29t-68 29 q-26 26 -26 65z" />
<glyph unicode="&#xfb46;" horiz-adv-x="1130" d="M72 0v262h563l-442 445v157h-121v262h260q72 0 110 -39q41 -41 41 -110v-160l123 -123q68 4 109 47q41 45 41 123h-121v262h262q66 0 109 -43q41 -41 41 -108v-76q0 -311 -226 -420l215 -217v-262h-964zM147 424q0 41 27 67.5t66 26.5q41 0 67.5 -26.5t26.5 -67.5 q0 -39 -27 -66q-29 -29 -67 -28q-37 0 -66 28q-27 27 -27 66z" />
<glyph unicode="&#xfb47;" horiz-adv-x="1103" d="M76 -451v1100h291v-1100h-291zM76 864v262h813q70 0 108 -39q41 -41 41 -110v-508q0 -221 -120 -346q-119 -123 -349 -123h-37v262h37q178 0 179 180v422h-672zM465 563q0 41 26.5 67.5t65.5 26.5q41 0 67.5 -26.5t26.5 -67.5q0 -39 -26 -65q-29 -29 -68 -29 q-37 0 -65 29q-27 26 -27 65z" />
<glyph unicode="&#xfb48;" horiz-adv-x="1081" d="M25 864v262h813q68 0 108 -39q43 -40 43 -110v-977h-293v864h-671zM379 563q0 39 29 68q27 27 65 26q41 0 67.5 -26.5t26.5 -67.5q0 -39 -26 -65q-29 -29 -68 -29q-37 0 -65.5 28.5t-28.5 65.5z" />
<glyph unicode="&#xfb49;" horiz-adv-x="1519" d="M0 0zM0 864v262h244q70 0 108 -39q43 -43 43 -110v-113h-73v-602h237v602h-70v262h211q70 0 109 -39q43 -43 43 -110v-715h172q29 0 47.5 18.5t18.5 49.5v534h-121v262h262q70 0 108 -39q41 -41 41 -110v-715q0 -117 -67 -190q-66 -72 -195 -72h-1087v649l59 215h-90z M877 563q0 41 26.5 67.5t65.5 26.5q41 0 67.5 -26.5t26.5 -67.5q0 -39 -27 -65q-29 -29 -67 -29q-37 0 -66 29q-26 26 -26 65z" />
<glyph unicode="&#xfb4a;" horiz-adv-x="1175" d="M53 0v262h105v387l59 215h-100v262h815q68 0 108.5 -38.5t40.5 -110.5v-113v-864h-290v864h-342v-864h-291h-105zM532 563q0 41 27 67.5t68 26.5q39 0 65.5 -26.5t26.5 -67.5q0 -39 -27 -65q-29 -29 -65 -29q-39 0 -68 29q-27 26 -27 65z" />
<glyph unicode="&#xfb4b;" horiz-adv-x="561" d="M57 864v262h260q70 0 109 -39q41 -41 41 -110v-977h-291v864h-119zM217 1333q0 41 26.5 67.5t65.5 26.5q41 0 67.5 -26.5t26.5 -67.5q0 -39 -26.5 -65.5t-67.5 -26.5q-39 0 -65.5 26.5t-26.5 65.5z" />
<glyph unicode="&#xfb4c;" horiz-adv-x="1169" d="M61 0v262h639v602h-639v262h781q68 0 108.5 -38.5t40.5 -110.5v-715h86v-262h-1016zM285 1241v154h444v-154h-444z" />
<glyph unicode="&#xfb4d;" horiz-adv-x="1093" d="M61 0v262h609q27 0 47 21q18 18 18 47v534h-674v262h816q66 0 106 -39q43 -40 43 -110v-621q0 -356 -356 -356h-609zM297 1241v154h442v-154h-442z" />
<glyph unicode="&#xfb4e;" horiz-adv-x="1097" d="M76 0v262h596q27 0 47 20.5t20 47.5v534h-372l-37 -170h205v-272h-459v227l59 215h-59v262h803q68 0 108 -39q43 -40 43 -110v-113v-508q0 -356 -358 -356h-596zM326 1241v154h442v-154h-442z" />
<glyph unicode="&#xfb4f;" horiz-adv-x="1193" d="M74 1106l723 -1106h305l-248 381q219 106 219 420v174q0 68 -41 108q-43 43 -110 43h-260v-262h120v-98q0 -113 -82 -154l-335 514v174h-291v-194z" />
</font>
</defs>
</svg>
