<svg xmlns="http://www.w3.org/2000/svg" viewBox="0 0 953.3 338"><style>.st0{fill:#555}.st1{fill:#eee}</style><path class="st0" d="M323.1 338H14.9C6.7 338 0 331.3 0 323.1V14.9C0 6.7 6.7 0 14.9 0H323c8.2 0 14.9 6.7 14.9 14.9V323c.1 8.3-6.6 15-14.8 15z"/><path id="path2301" class="st0" d="M458.5 192.4c16.6 0 24.5-1.1 24.5-13.9 0-13.4-8.1-15-24.5-15h-61.8v-36.6h59.9c22.5 0 38.9 1.8 50.8 9.7 13.6 9.1 20.1 22.5 20.1 40.9 0 32.4-19.6 50.4-56.1 50.4h-27.9v44.6h-46.8v-80.2h61.8v.1z"/><path id="path2303" class="st0" d="M608.3 239.9c19.8 0 28.3-12.8 28.3-40.1s-8.5-40.1-28.4-40.1c-19.8 0-28.5 12.8-28.5 40.1s8.8 40.1 28.6 40.1m0-116.8c46.8 0 75.5 29.4 75.5 76.7 0 47.4-28.7 76.8-75.5 76.8s-75.7-29.4-75.8-76.7c.1-47.5 29-76.8 75.8-76.8"/><path id="path2305" class="st0" d="M737.9 224.3c1.2 12.8 9 17.6 21.8 17.6 11.3 0 17.6-4.3 17.6-10.5 0-9.1-8.5-9.9-25.7-14.4-20.3-5.3-33.4-9.7-39.5-14-11.4-8.1-16.8-19.2-16.8-33.6 0-28.2 22.3-46.4 61.1-46.4 37.7 0 61.1 16.9 62.6 48.6h-44.4c-.1-11.4-7.7-15.6-19.1-15.6-9.9 0-14.8 3.2-14.8 9.9 0 7.7 7.5 9.1 21.7 12.8 18 4.7 32.4 7.5 41.7 13.8 12.8 8.5 18.6 19 18.6 34 0 31.6-22.7 50-65.2 50-39.1 0-63.5-18.5-65-52.2h45.4z"/><path id="polygon2307" class="st0" d="M865.4 165.2h-41.9v-38.3h129.8v38.3h-41.1v107.3h-46.8z"/><path id="path2309" class="st1" d="M137.3 63.7C92 77.3 59 119.3 59 169c0 49.7 33 91.7 78.3 105.3V63.7z"/><path id="path2311" class="st1" d="M169 59c-2.6 0-5.1.1-7.6.3v11.3c1.5-.1 3-.2 4.5-.2 37.8 0 68.5 30.6 68.5 68.4 0 37.5-30.2 68-67.6 68.4v71.7h2.3c60.7 0 110-49.3 110-110C279 108.2 229.7 59 169 59"/><path id="path2313" class="st0" d="M412.2 72.6l-5.3 17.7h10.5l-5.2-17.7zM405.3 96l-2.8 9.8h-6.7l13-41.3h7l12.6 41.3h-6.7L419 96h-13.7"/><path id="path2315" class="st0" d="M435.9 64.5v26.1c0 4.6.2 8 2.5 11.2 2.4 3.3 5.6 4.7 10.5 4.7 4.2 0 7.2-1 9.3-3.1 2.5-2.5 3.7-6.7 3.7-13.1V64.5H456v26.6c0 3.1-.1 5.3-1.1 7-1.3 2.1-3.2 3.1-6 3.1s-4.7-1-5.9-3.1c-1-1.7-1.1-3.9-1.1-7V64.5h-6z"/><path id="path2317" class="st0" d="M471.7 93.7v1.2c0 3.7 1 6.5 2.9 8.5 2 2 5.2 3.1 9.3 3.1 4.2 0 7.5-1.1 9.8-3.4 2-2 3-4.8 3-8.2 0-5.1-3.2-7.6-8.1-10.7l-2.3-1.5c-5.1-3.2-7.9-5-7.9-8.7 0-1.3.5-2.5 1.4-3.4 1.1-1.1 2.7-1.7 4.5-1.7 1.8 0 3.1.5 4 1.4 1 1 1.5 2.6 1.5 4.8v1.2h6.4v-1.4c0-3.4-1-6.1-2.9-8-2-2-5-3-8.9-3-7.4 0-12.4 4.3-12.4 10.8 0 6 3.2 8.3 9.2 12.2l1.7 1c4.6 2.8 7.3 4.6 7.3 7.8 0 3.4-2.7 5.8-6.4 5.8-1.8 0-3.1-.4-3.9-1.3-1.1-1.1-1.6-3-1.6-5.7v-1.1h-6.6v.3z"/><path id="polygon2319" class="st0" d="M516.6 69.5v36.3h-6.2V69.5h-10v-5h25.8v5z"/><path id="path2321" class="st0" d="M550.1 71c-1-1-2.5-1.4-4.5-1.4H540v12.6h3.5c5.7 0 8-2 8-6.8.1-2-.4-3.5-1.4-4.4m1.8 13.4c4 1 4.9 4.2 4.9 8.6v4.2c0 3 .4 5.7 1.1 8.2l.2.5h-6.3l-.1-.3c-.9-2.8-.9-5.9-.9-9.2 0-1.1 0-2.3-.1-3.5-.1-4.2-1.2-5.6-4.4-5.6h-6v18.5h-6.1V64.5h11c4.9 0 8.3 1 10.4 3 1.6 1.6 2.4 4 2.4 7.1-.3 5-2.2 8.2-6.1 9.8"/><path id="path2323" class="st0" d="M581.5 72.6l-5.3 17.7h10.5l-5.2-17.7zm6.8 23.4h-13.7l-2.8 9.8h-6.7l13-41.3h7l12.6 41.3H591l-2.7-9.8"/><path id="polygon2325" class="st0" d="M611.9 100.3V64.5h-6.1v41.3h19.9v-5.5z"/><path id="polygon2327" class="st0" d="M632.5 105.8h5.9V64.5h-6.3v41.3z"/><path id="path2329" class="st0" d="M662.8 72.6l-5.4 17.7H668l-5.2-17.7zm6.8 23.4h-13.7l-2.8 9.8h-6.7l13-41.3h7l12.6 41.3h-6.7l-2.7-9.8"/></svg>