<svg xmlns="http://www.w3.org/2000/svg" height="37.5" width="200"><path d="M50.768 29.76l-6.495-10.233c-.39-.73-.686-1.171-.686-2.038.005-1.273.666-2.193 2.91-3.599.484-.318 2.231-1.013 3.647-1.013 1.909 0 3.333 1.976 3.333 6.11 0 6.726-2.71 10.773-2.71 10.773zm0 0l1.195-13.131.54-2.285s2.385 3.478 8.462 14.665c3.86-7.017 6.32-15.402 6.32-15.402.173-.573.63-.712 1.293-.537l4.166 1.287c.506.18.78.38.496 1.32-3.465 10.085-8.891 18.403-8.891 18.403-1.045 1.548-2.11 2.862-5.635 2.862-2.844 0-3.834-.969-4.825-2.447zm-25.655 3.513s-4.39-3.355-4.39-9.63V5.675c0-1.445.932-2.697 4.82-2.697 4.247 0 4.714 1.654 4.714 2.894v7.455h7.527c.543 0 .752.318.752.821v4.448c0 .421-.171.753-.665.753h-4.98c-1.291 0-2.634-.502-2.634-.502v3.011c0 3.754-.97 7.589-5.144 11.416zm0 0l3.89-10.036 1.254-1.254v1.756c0 4.224 2.049 7.474 7.352 7.474 4.835 0 8.239-2.739 8.239-6.99 0-2.16-1.046-3.874-1.046-3.874l5.485 2.738.48 6.673s-3.652 7.164-13.948 7.164c-8.04 0-11.706-3.65-11.706-3.65zM.525 14.098c0-.448.251-.772.753-.772h8.188c.433 0 .719.343.719.765v12.553c0 2.14 1.218 4.63 4.98 4.63 3.662 0 5.557-2.28 5.557-6.933v-.978l3.89 7.401.501 2.51s-3.815 3.688-10.731 3.688c-3.433 0-13.857-.563-13.857-11.969zM.5 5.285C.5 2.654 2.364.5 5.36.5c3.155 0 4.846 2.26 4.846 4.913 0 2.919-2.137 4.688-4.823 4.688C2.46 10.1.5 8.107.5 5.285zm81.784 31.728c-2.52 0-3.003-.442-3.003-1.396V5.972h7.548L99.64 28.93V5.972h6.058v29c0 1.468-1.084 1.94-4.214 1.94-2.891 0-3.477-.495-4.292-1.12-.391-.438-.504-.645-1.262-2.019L85.34 14.82v20.797c0 1.036-.5 1.396-3.056 1.396zm51.073-31.041h6.746c1.21 8.126 3.149 14.51 5.353 25.277h.579l3.518-23.838c.226-1.191.594-1.439 1.73-1.439h6.747c1.079 0 1.456.274 1.696 1.354l4.074 23.923h.578c1.785-8.753 3.334-13.577 5.024-25.277h6.699c-2.801 15.768-4.42 19.394-6.753 29.065-.199.717-.356.879-.522 1.072-.445.482-1.094.896-4.664.896-2.779 0-3.91-.152-4.724-.93-.31-.288-.409-.586-.61-1.53l-3.979-22.566h-.434l-3.612 22.783c-.155.748-.23.953-.529 1.31-.35.353-.803.941-4.832.941-3.24 0-3.925-.282-4.575-.896-.34-.358-.52-.955-.623-1.46-2.437-9.775-5.043-18.304-6.887-28.685zm54.197 31.018c-3.627 0-5.987-.426-9.009-1.232-.808-.228-1.102-.44-1.102-1.311 0-.852.332-2.646.61-3.246.318-.668.399-.77.923-.77.854 0 3.538 1.232 8.227 1.232 3.242 0 4.322-.68 4.96-1.332.479-.532.767-1.337.767-2.258 0-.743-.162-1.665-.785-2.26-2.178-2.047-9.136-2.424-11.903-5.283-1.893-1.844-2.319-4.353-2.319-6.004 0-2.761 1.023-4.701 2.396-6.096 2.186-2.216 5.794-2.886 9.304-2.886 4.522 0 8.11 1.125 8.11 1.125l-.58 5.24s-3.919-1.034-7.185-1.034c-4.369 0-5.429 1.712-5.419 3.38 0 .78.272 1.457.782 1.94 1.906 1.984 8.824 2.08 11.823 5.105 1.814 1.809 2.346 4.065 2.346 6.33 0 2.642-.734 4.924-2.432 6.65-2.053 2.021-5.473 2.71-9.514 2.71zm-76.269.023c-.923 0-1.251-.471-1.251-1.252V7.381c0-.982.289-1.409 1.802-1.409h19.325v5.357h-14.569v7.21h12.467v5.307h-12.467v7.86h14.87v5.307z" fill="#555"/></svg>