<svg xmlns="http://www.w3.org/2000/svg" viewBox="0 0 156 78" fill="#555"><defs><style>.cls-1{stroke:#fff;stroke-width:.3px}</style></defs><path class="cls-1" d="M38.66 20.09v16.63h9.28L62.72.2h-8.89l-6.12 14.89V.2h-9.77L23.08 36.72h8.87s5.26-13.03 6.71-16.63zm22.63 16.62L76.09.19 67.01.2l-14.8 36.53 9.08-.02z"/><path class="cls-1" d="M132.07 27.31l-20.61 5.54 1.23-3.18h-10.75l3.34-8.69h8.69l2.6-6.49h-8.6l3.28-7.87h8.69l2.61-6.48h-17.78L90.3 35.89l-2-17.94L104.58.17h-9.76l-9.75 10.26L89.28.17h-9L65.45 36.7h9l5.78-14.61c0 .06.1 1.09 1.46 14.59l8.28.05h7.17c-.06 0-1.12.28-13.69 3.57-15.43 4-26.57 6.92-33.79 8.59-16.47 3.85-21 4-25.66.91-3.62-2.41-5.22-6.54-4.94-12.58A27.49 27.49 0 0120.59 30a40.79 40.79 0 011.79-4.4c.2-.43.57-1.1.57-1.1s-1.63 1.51-3 3c-.8.89-1.12 1.18-3.35 3.7-2.45 2.77-5.18 5.88-8 9.76C4.76 46.21 1.43 51.59.41 58.3c-.53 3.54 0 8.21 1.2 10.64 6.48 12.77 19.7 10 45.08-.4 14.13-5.82 109.6-48.29 109.6-48.29zm-20.48 33.43c-.51-1.13-2.39-2.43-3-2.89l-3.65-2.62c-1.32-1.12-1.34-1.2-.53-3.22a3.36 3.36 0 013.42-2.38c2.31 0 1.88 1.07 1.3 2.52l-.86 2.17h6.92l1.25-3.23c2-5-2-6.74-6.27-6.74-4.09 0-6.36.57-8 1.6-2.71 1.68-3.92 4.37-4.79 6.56-1.14 2.85-1.48 4.65 1.16 6.72 0 0 1.38 1 4.7 3.18 1.52.9 1.5 1.68.69 3.69-1 2.61-1.36 3.43-4 3.43s-2.11-1.28-1.41-3l1.31-3.44h-7l-1.84 4.62c-1.84 4.62.53 7.09 6.9 7.09 4.68 0 7.22-.56 9.49-2.75 1.75-1.71 2.54-3.63 3.58-6.28.98-2.29 1.2-3.76.63-5.03zm25-14.85c-1-.67-2.46-.83-4.89-.83h-9.45l-11.61 29.09h10.92a13.74 13.74 0 006-1c3-1.43 3.66-3.44 4.7-5.65l1-2.55c1.17-2.92 1.47-4.56-1-5.38 3-.64 3.82-2.13 5-5.06l.95-2.86c.78-2.33.68-4.3-1.57-5.79m-9.94 18.88l-.63 1.58c-.94 2.37-1.71 2.63-4.26 2.63h-2.26c.06-.11 2.72-6.77 2.72-6.77h2.34c2.6 0 2.94.43 2.09 2.56m4.73-11.83l-.61 1.49c-.84 2.14-2.14 2.41-4.36 2.41h-2.12l2.6-6.51h1.57c2.6 0 3.81.17 2.87 2.64z"/></svg>