<svg role="img" xmlns="http://www.w3.org/2000/svg" viewBox="0 0 241.4 173"><linearGradient id="a" gradientUnits="userSpaceOnUse" x1="131.141" y1="-48.696" x2="205.143" y2="25.305" gradientTransform="matrix(1 0 0 -1 0 90)"><stop offset="0" stop-color="#d81e75"/><stop offset="1" stop-color="#ff5fa8"/></linearGradient><path d="M129.7 36v99.6c.1 2.5 2.2 4.5 4.7 4.4H234c2.5 0 4.5-2 4.5-4.6v-.1c0-49.6-54.2-103.7-104-103.8-2.5-.1-4.7 1.9-4.8 4.5z" fill="url(#a)"/><path d="M3 108.4v27.2c0 2.4 2 4.4 4.4 4.4h99.8c2.3.1 4.3-1.7 4.4-4V35.9c.1-2.4-1.8-4.5-4.2-4.5H80c-2.5 0-4.6 2-4.6 4.5v27.2c0 2.4-1.9 4.4-4.3 4.5H43.8c-2.5 0-4.6 2.1-4.6 4.6v27.2c0 2.4-1.9 4.4-4.4 4.4H7.5c-2.5 0-4.5 2-4.5 4.6z" fill="#d81e75"/><path d="M107.2 31.3H80c-2.5 0-4.6 2-4.6 4.5V63c0 2.4-1.9 4.4-4.3 4.5H43.8c-2.5 0-4.6 2.1-4.6 4.6v67.8h68c2.3.1 4.3-1.7 4.4-4v-100c.1-2.4-1.8-4.5-4.2-4.5-.1-.1-.1-.1-.2-.1z" opacity=".8" fill="#f38"/><path d="M107.2 31.3H80c-2.5 0-4.6 2-4.6 4.5v104h31.8c2.3.1 4.3-1.7 4.4-4V35.9c.1-2.4-1.8-4.5-4.2-4.5-.1-.1-.1-.1-.2-.1z" opacity=".8" fill="#ff5fa8"/></svg>