<svg xmlns="http://www.w3.org/2000/svg" viewBox="0 0 159 37.11"><path d="M36.93 20.89a16.93 16.93 0 00.18-2.33 17.87 17.87 0 00-5.43-13.12A17.9 17.9 0 0018.57 0 17.88 17.88 0 005.43 5.44 17.87 17.87 0 000 18.56a18.08 18.08 0 00.16 2.39 49.71 49.71 0 017.56-2h.05a11.67 11.67 0 013.29-7.74 10 10 0 017.35-3.05 10 10 0 017.34 3.05 10 10 0 013.06 7.36v.25l.7.13a49.87 49.87 0 017.42 1.94M35 27.11a11.44 11.44 0 00.86-1.89l-1.1-.2a50.69 50.69 0 00-7.59-.66h-1a63.1 63.1 0 00-9.25.78l-2.49.43a63.31 63.31 0 00-11.27 3.3 18.2 18.2 0 003.41 3.83 65.29 65.29 0 016.91-2.7l.63-.2c.91-.31 1.71-.54 2.43-.73A59.06 59.06 0 0131 27h.58c.64 0 1.55 0 2.75.09z" fill="#555"/><path d="M35.83 23.54l.54.13.35-1.5a54.35 54.35 0 00-8-1.93 61.6 61.6 0 00-10.23-.83 61.69 61.69 0 00-10.25.83 54.56 54.56 0 00-8 1.93 21.1 21.1 0 001.11 3.69 59.19 59.19 0 0115.04-3.46c1.23-.12 2.14-.2 2.76-.23h.67c1 0 2-.06 3-.06h.26c1.58 0 3.29.06 5.15.21a53.23 53.23 0 017.62 1.26M12.32 35.19l-1 .52a18.72 18.72 0 007.21 1.41A18.35 18.35 0 0033.84 29a50.66 50.66 0 00-10.5 1.85 61.54 61.54 0 00-11 4.33m38.53-17.37a6.24 6.24 0 01-6.46-6.27 6.48 6.48 0 0112.95 0 6.3 6.3 0 01-6.49 6.27zm3.69-6.3a3.7 3.7 0 00-3.69-3.83 3.64 3.64 0 00-3.65 3.79 3.7 3.7 0 003.69 3.83 3.64 3.64 0 003.65-3.79zM65.6 17.6h-5.8V5.42h5.66c2.49 0 4 1.24 4 3.15a2.83 2.83 0 01-1.6 2.63 3 3 0 012.28 3c.02 2.29-1.79 3.4-4.54 3.4zM66.82 9c0-.8-.63-1.25-1.76-1.25h-2.65v2.58h2.47c1.18 0 1.93-.38 1.93-1.29V9zm.68 4.87c0-.82-.61-1.32-2-1.32h-3.1v2.68h3.2c1.18 0 1.9-.42 1.9-1.32zm14.18 3.73l-1.11-2.73h-5.16L74.3 17.6h-2.73l5.22-12.27h2.47l5.22 12.27h-2.8zM78 8.55l-1.62 4h3.24zm18.32 9.05v-8l-3.43 5.2h-.07l-3.4-5.1v7.9H86.8V5.42h2.89l3.2 5.15 3.2-5.15H99V17.6h-2.68zm14.83 0L110 14.87h-5.15l-1.11 2.73H101l5.22-12.27h2.47l5.22 12.27h-2.8zm-3.69-9.05l-1.62 4h3.24zM45.73 21.72h7.88v1.14H47v3.91h5.94v1.13H47v4.78h-1.27v-11zm10.03 5.51a5.59 5.59 0 1111.18 0 5.59 5.59 0 11-11.18 0zm9.9 0a4.36 4.36 0 00-4.32-4.53A4.31 4.31 0 0057 27.17a4.36 4.36 0 004.32 4.53 4.31 4.31 0 004.34-4.47zm4.34.86v-6.37h1.24V28c0 2.36 1.25 3.7 3.35 3.7s3.3-1.22 3.3-3.62v-6.36h1.24V28c0 3.19-1.83 4.85-4.57 4.85S70 31.2 70 28.09zm13-6.37h1.16l6.91 8.79v-8.79h1.21v11h-1l-7.08-9v9H83v-11zm13.5 0h3.81c3.45 0 5.83 2.36 5.83 5.45a5.49 5.49 0 01-5.83 5.48H96.5v-11zm3.81 9.82a4.24 4.24 0 004.54-4.31 4.27 4.27 0 00-4.54-4.34h-2.57v8.68h2.57zm12.12-9.9h1.16l5 11h-1.33L116 29.79h-6l-1.3 2.9h-1.27zm3.05 7L113 23.08l-2.51 5.59h5zm7.2-5.78H119v-1.14h8.61v1.14h-3.68v9.82h-1.25v-9.82zm8.06-1.14H132v11h-1.24v-11zm4.58 5.51a5.59 5.59 0 1111.18 0 5.59 5.59 0 11-11.18 0zm9.9 0a4.36 4.36 0 00-4.32-4.53 4.31 4.31 0 00-4.29 4.49 4.36 4.36 0 004.32 4.53 4.31 4.31 0 004.28-4.49zm4.51-5.51h1.16l6.91 8.79v-8.79h1.2v11h-1l-7.08-9v9h-1.21v-11z" fill="#555"/></svg>